<svg width="194" height="246" viewBox="0 0 194 246" fill="none" xmlns="http://www.w3.org/2000/svg">
  <path d="M77.5485 214.263C77.1526 213.069 76.7207 211.886 76.3645 210.679C74.7774 205.295 71.7776 201.671 65.781 200.846C62.3322 200.37 59.0686 198.693 55.6262 198.047C49.1322 196.829 45.9633 192.149 44.0247 186.667C41.4762 179.465 39.6204 172.008 37.4078 164.458C39.4807 162.874 41.4513 163.661 43.1477 165.01C48.2288 169.046 54.026 170.992 60.4402 171.533C62.5716 171.714 64.6621 172.441 66.7499 173.002C78.3878 176.129 85.1178 185.463 83.4561 197.327C82.6517 203.074 80.419 208.631 78.832 214.276L77.5485 214.263Z" fill="#343E47" fill-opacity="0.1"/>
  <path d="M13.561 49.1973C14.309 49.0407 15.3055 48.5137 15.6717 48.7993C20.1102 52.256 24.4447 55.8444 28.829 59.3705C34.582 63.9986 36.0195 70.0746 34.1162 76.9439C32.8195 81.627 31.4078 86.4223 29.1088 90.6561C25.9611 96.4545 22.589 102.002 22.0425 108.793C21.954 109.891 20.6692 110.899 19.937 111.95C18.7745 111.042 16.768 110.283 16.5906 109.202C15.621 103.36 12.4708 98.6975 9.55972 93.7898C4.87092 85.8904 5.03798 77.4002 9.40579 69.5464C12.5934 63.8175 15.2439 58.4585 13.2579 51.8187C13.049 51.125 13.422 50.2484 13.561 49.1973Z" fill="#343E47" fill-opacity="0.1"/>
  <path d="M98.9377 110.054C95.3576 113.104 91.404 115.814 88.3012 119.29C85.0379 122.95 82.1119 127.097 79.8883 131.461C75.7685 139.554 68.6467 142.563 60.5843 143.578C52.4778 144.596 44.5184 143.667 36.4744 137.407C39.9307 136.863 41.9581 136.239 43.9611 136.291C48.5181 136.408 51.5495 133.6 54.631 130.96C56.139 129.668 55.3637 127.443 53.4747 127.543C49.9635 127.731 46.4388 128.167 42.9827 128.842C39.3356 129.556 35.7613 130.837 31.5297 128.888C36.9553 123.741 41.9537 118.871 47.0901 114.152C54.5246 107.321 63.3285 105.651 72.9618 107.375C81.1951 108.849 89.3589 111.252 97.8738 109.002C98.1233 108.936 98.5776 109.687 98.9377 110.054ZM86.3871 113.499C80.1806 112.579 74.0759 111.372 67.9093 110.823C57.3317 109.884 48.5321 115.163 44.4981 124.403C48.0371 124.18 51.5927 123.549 55.0623 123.848C58.4696 124.142 61.1749 119.979 65.0131 122.307C62.6478 125.65 60.7527 128.943 58.2564 131.691C55.6643 134.546 52.4959 136.873 49.851 139.192C60.5962 142.249 70.7034 138.92 76.7987 129.606C80.0637 124.617 82.9189 119.356 86.3871 113.499Z" fill="#343E47" fill-opacity="0.1"/>
  <path d="M55.6568 20.5725C63.074 28.2856 70.075 35.7098 71.2413 46.6273C71.5521 49.5269 72.0463 53.0757 70.7511 55.3618C66.955 62.0637 65.384 69.0184 65.6767 76.5621C65.7007 77.1955 64.93 78.4426 64.6362 78.4128C63.6963 78.3181 62.3024 78.0039 61.9764 77.3326C59.1445 71.4858 56.4521 65.5677 53.8221 59.621C51.3005 53.9186 51.8872 48.2976 55.3585 43.2018C58.6454 38.3736 59.0744 33.7532 56.2724 28.6121C55.0574 26.3793 53.8841 23.7748 55.652 20.5696L55.6568 20.5725Z" fill="#343E47" fill-opacity="0.1"/>
  <path d="M10.209 158.57C12.8543 164.479 14.1146 170.811 21.306 172.33C23.8182 165.687 19.0914 159.835 18.7313 152.773C23.868 155.231 28.3459 156.939 30.8851 161.587C35.0075 169.144 32.6568 182.084 26.0368 188.005C23.0441 190.682 20.1634 193.487 17.1522 196.31C16.7293 191.408 15.2086 187.012 12.2219 182.846C7.097 175.694 5.49724 167.782 10.2128 158.569L10.209 158.57Z" fill="#343E47" fill-opacity="0.1"/>
  <path d="M87.5336 177.294C92.0692 180.592 94.8488 187.322 102.82 185.113L96.9386 175.453C113.738 176.492 117.239 181.86 119.204 193.133C119.995 197.67 121.924 202.002 123.422 206.699C121.39 206.99 120.306 207.485 119.91 207.152C115.023 203.066 109.229 201.532 103.171 199.895C96.8742 198.191 91.4185 194.365 89.5319 187.135C88.7337 184.078 87.2312 181.213 86.0501 178.26L87.5336 177.294Z" fill="#343E47" fill-opacity="0.1"/>
  <path d="M-19.5283 112.993C-12.3583 111.617 -5.66156 109.023 1.42326 110.843C13.1782 113.866 18.9139 122.156 17.3012 134.304C16.9312 137.098 18.3286 140.563 14.513 142.186C10.6015 143.85 8.11792 140.686 6.01078 138.809C3.30379 136.401 1.06349 132.886 -0.0819235 129.407C-2.67612 121.526 -6.73891 115.835 -15.5796 114.816C-16.9526 114.659 -18.2146 113.623 -19.5283 112.993Z" fill="#343E47" fill-opacity="0.1"/>
  <path d="M70.2119 88.739C78.1394 84.7192 86.1513 84.8964 94.5511 87.2294C99.7155 88.6656 105.234 88.9288 110.617 89.4794C118.842 90.3228 124.636 86.3766 129.07 79.6986C130.633 77.3447 132.673 75.3065 135.29 73.6916C131.089 82.7382 128.288 92.5647 120.4 99.268C113.5 105.131 104.995 106.103 96.4578 105.926C92.0155 105.835 87.6036 104.602 83.3167 102.588C90.0942 102.751 96.9375 103.593 103.631 102.885C110.456 102.163 115.942 97.8502 121.028 92.9864C109.294 94.3335 98.0218 92.7042 86.6984 90.9365C77.1332 89.4433 72.9951 91.4352 66.4148 99.3549C68.7812 99.462 70.7989 99.4184 72.7778 99.6761C74.8152 99.939 76.8132 100.493 78.6865 102.025L61.8868 102.433C61.7881 95.5476 67.8522 93.1957 70.5568 88.655L70.2119 88.739Z" fill="#343E47" fill-opacity="0.1"/>
  <path d="M41.5573 60.2415C36.4019 56.5438 39.7218 51.3912 38.0743 46.3112L34.2058 57.5955C29.4744 53.746 27.3227 49.1995 25.1313 44.7311C23.4547 41.311 25.4594 38.1936 26.8421 35.3925C29.296 30.4151 32.4055 25.7603 35.3136 20.8486C38.2414 24.7801 41.8498 28.7347 44.4109 33.2909C47.5111 38.8052 49.4691 44.6979 45.2649 51.0042C43.5478 53.5811 42.8762 56.8523 41.5573 60.2415Z" fill="#343E47" fill-opacity="0.1"/>
  <path d="M149.079 119.516C146.344 119.139 143.491 119.124 140.894 118.31C134.255 116.23 128.556 118.015 123.248 122.033C121.507 123.351 119.771 124.695 118.191 126.196C110.744 133.272 101.771 135.595 91.8363 135.23C87.7909 135.082 83.7311 135.259 79.0749 135.294C80.2389 134.122 81.0823 132.643 82.3131 132.137C91.6631 128.284 99.005 122.103 105.026 113.96C113.016 103.157 126.497 101.564 137.991 110.206C135.517 109.934 133.495 110.178 131.915 109.459C121.156 104.563 113.731 110.086 106.903 117.486C102.745 121.994 98.7362 126.644 94.5305 131.381C101.516 131.445 107.932 129.036 113.725 124.748C115.912 123.131 117.948 121.28 119.913 119.387C126.16 113.36 133.406 112.766 141.199 115.176C143.971 116.034 146.671 117.118 149.402 118.099L149.075 119.517L149.079 119.516Z" fill="#343E47" fill-opacity="0.1"/>
  <path d="M70.5535 88.6575C69.9346 87.5769 68.6569 86.3979 68.8071 85.432C69.7265 79.5067 70.4662 73.4684 72.3022 67.7976C73.3067 64.6874 76.1463 62.0446 78.5091 59.5224C80.546 57.3479 82.9477 55.4449 85.4202 53.7674C90.6549 50.2136 91.9508 45.3236 91.0512 39.4186C90.5744 36.2897 88.6821 31.5627 92.2376 30.5656C96.2671 29.4365 96.9916 34.7988 98.4962 37.7206C100.235 41.0956 101.702 44.6895 102.723 48.3505C105.739 59.1639 101.744 71.1989 90.8001 75.9128C87.0282 77.5385 83.2973 79.2866 79.6486 81.1752C76.0235 83.0515 72.2528 84.8285 70.2076 88.7377L70.5535 88.6575ZM74.0294 79.817C79.9598 77.2909 85.1468 75.4615 89.9718 72.923C95.285 70.1298 98.6878 65.4619 99.8341 59.4876C101.115 52.8097 99.7845 47.8292 95.9314 43.3072C93.0876 51.8472 92.9729 52.1724 84.949 58.7165C78.5804 63.9116 73.9759 69.935 74.0294 79.817Z" fill="#343E47" fill-opacity="0.1"/>
  <path d="M44.4564 59.5733C46.0619 60.4781 47.9747 60.8965 48.6336 62.0466C51.3288 66.738 53.1054 72.0385 56.2076 76.4042C61.8723 84.3704 59.0073 101.362 50.4156 106.647C47.4292 108.485 44.7557 110.853 42.0176 113.077C37.6943 116.588 33.4364 120.179 29.1108 123.77C29.0099 123.71 28.5744 123.58 28.5693 123.43C28.3943 118.684 28.7601 113.853 27.9834 109.22C27.182 104.431 27.9201 100.138 29.2564 95.5961C30.2404 92.2576 31.7325 89.7867 34.4635 87.6234C39.5348 83.606 42.9683 78.3273 43.8988 71.8353C44.4282 68.1523 44.2657 64.3774 44.4564 59.5733ZM48.3637 71.9926C46.4127 78.3946 43.9356 83.3125 39.2167 87.0636C33.5362 91.5786 30.982 97.8102 31.254 105.011C31.3858 108.525 32.119 112.016 32.6115 115.753C37.2511 112.509 41.7738 109.133 46.5034 106.093C52.5483 102.206 54.3737 96.1916 55.9786 89.7058C57.4375 83.8116 54.4377 79.8702 51.4357 75.7244C50.6492 74.6364 49.7314 73.6442 48.3637 71.9926Z" fill="#343E47" fill-opacity="0.1"/>
  <path d="M36.4258 145.493C45.6362 152.09 55.6992 150.825 65.5343 148.147C75.1954 145.517 78.991 143.693 87.9678 156.738C90.7133 160.726 93.5235 164.67 96.4406 168.827C91.1541 166.978 85.8544 168.237 80.5349 169.791C67.5491 173.587 56.2574 170.259 46.8661 161.004C42.5161 156.719 39.007 151.572 35.1161 146.818L36.4258 145.493ZM88.9137 163.349C87.4739 161.304 86.0914 159.398 84.7713 157.447C80.2673 150.78 74.7204 148.407 66.6581 151.613C59.2319 154.567 51.3522 155.756 42.751 152.01C56.8017 168.184 67.8168 170.801 88.9137 163.349Z" fill="#343E47" fill-opacity="0.1"/>
  <path d="M153.732 155.268C148.873 151.673 143.926 152.154 138.941 154.47C138.694 154.586 138.418 154.636 138.169 154.75C128 159.323 119.072 156.003 110.638 150.374C107.736 148.436 105.462 145.576 101.547 145.368C100.808 145.327 99.6207 143.985 99.6041 143.218C99.5875 142.419 100.753 140.878 101.387 140.881C108.943 140.919 114.497 135.851 120.954 133.158C125.299 131.348 129.264 131.347 133.413 133.567C139.47 136.81 144.838 140.708 148.648 146.629C150.306 149.21 152.639 151.351 154.666 153.691L153.734 155.276L153.732 155.268ZM109.042 143.66C117.183 154.469 132.798 155.838 145.337 147.585C143.307 142.685 138.508 141.055 134.627 138.272C129.776 134.794 125.061 135.279 120.13 137.876C116.527 139.775 112.909 141.645 109.042 143.66Z" fill="#343E47" fill-opacity="0.1"/>
  <path d="M136.817 173.883C131.872 175.204 127.032 176.875 122.062 177.746C112.632 179.395 105.854 174.92 100.918 167.339C98.5679 163.73 96.7368 159.777 94.4369 155.552C99.9605 155.34 105.296 154.794 110.586 155.053C114.313 155.235 117.917 156.321 120.699 159.495C125.041 164.447 128.963 170.074 136.003 171.723C136.27 171.787 136.354 172.61 136.817 173.883ZM100.185 160.259C107.25 172.831 113.635 175.838 125.979 172.818C121.825 162.848 117.369 155.98 100.185 160.259Z" fill="#343E47" fill-opacity="0.1"/>
  <path d="M93.1445 80.4739C93.2817 79.7984 93.2085 79.018 93.5206 78.8031C99.8628 74.4473 105.469 69.5643 109.125 62.4482C110.029 60.6843 113.786 59.8684 116.328 59.5852C119.464 59.2371 122.703 59.8971 126.861 60.1901C125.739 61.7112 124.992 62.579 124.408 63.5435C122.457 66.768 120.034 69.8346 118.755 73.3097C115.971 80.8953 113.211 83.179 105.549 82.3998C101.391 81.9757 97.28 81.1273 93.1445 80.4739ZM102.467 78.0759C111.982 79.1334 112.547 78.7766 115.807 69.9783C116.184 68.9633 117.051 68.101 117.312 67.0733C117.616 65.8869 117.504 64.5958 117.571 63.3481C116.33 63.4943 114.814 63.2387 113.911 63.8703C112.173 65.0852 110.588 66.6559 109.291 68.348C106.88 71.4937 104.721 74.834 102.467 78.0759Z" fill="#343E47" fill-opacity="0.1"/>
</svg>
