<svg width="249" height="575" viewBox="0 0 249 575" fill="none" xmlns="http://www.w3.org/2000/svg">
<path d="M174.869 99.4087C174.46 101.548 173.633 103.639 173.762 105.67C174.017 109.692 172.702 113.141 170.788 116.485C169.525 118.691 168.297 120.938 166.817 123.001C153.507 141.532 143.25 161.753 133.593 182.278C129.755 190.436 126.155 198.79 126.114 208.099C125.714 207.984 125.294 207.989 125.08 207.783C118.977 201.892 111.183 199.271 103.324 196.866C101.446 196.292 99.3306 196.387 97.3226 196.372C96.784 196.368 96.2416 197.095 95.7012 197.487C96.1497 197.927 96.5776 198.725 97.0505 198.752C103.266 199.106 108.654 201.884 113.933 204.681C117.106 206.363 119.794 208.943 122.708 211.106C124.151 212.178 123.907 213.208 123.288 214.816C120.589 221.819 118.91 236.384 118.247 242.961C117.208 253.293 119.27 269.421 120.186 273.737C122.926 286.672 127.321 299.068 132.817 311.119C136.04 318.187 138.735 325.491 141.735 332.659C142.903 335.445 143.068 338.14 142.274 341.102C138.549 355.008 134.85 368.925 131.384 382.895C128 396.531 124.757 410.204 121.747 423.926C119.176 435.642 116.596 457.032 115.297 468.952C108.686 529.555 111.48 561.944 111.945 575.004H116.301C116.031 569.593 115.481 564.191 115.419 558.78C114.916 514.73 115.742 510.481 116.599 497.73C118.623 467.653 123.385 433.953 130.252 404.586C134.754 385.326 139.508 366.124 144.336 346.152C145.123 347.94 145.731 349.005 146.07 350.146C159.092 393.929 162.609 409.853 143.685 503.302C139.187 525.517 134.323 547.659 129.64 569.839C129.28 571.547 128.972 573.273 128.749 575.005H133.148C134.542 568.108 139.887 540.545 142.088 529.568C144.849 515.8 148.123 502.123 150.49 488.292C152.916 474.121 158.972 451.741 160.496 424.171C161.763 401.25 159.798 384.817 157.422 373.889C155.549 365.276 152.697 356.87 150.173 348.403C143.999 327.697 153.23 342.301 154.996 297.102C155.251 290.56 155.058 283.999 155.039 277.448C155.013 268.717 153.733 260.108 151.411 251.741C147.294 236.901 141.024 223.094 129.445 212.32C127.655 210.653 128.186 208.997 128.719 207.484C131.84 198.643 134.493 189.56 138.536 181.137C146.374 164.808 153.811 148.236 164.536 133.394C171.133 124.265 176.371 114.184 184.258 105.953C185.934 104.204 187.131 102.118 187.612 99.4105C183.516 100.935 179.268 100.936 174.869 99.4143V99.4087ZM140.288 235.174C145.511 245.58 148.818 256.735 150.231 268.17C151.985 282.375 153.083 284.397 148.258 321.153C147.757 324.976 146.699 328.728 145.716 333.343C139.091 316.572 131.228 301.272 126.172 284.825C118.283 259.156 121.858 244.615 122.736 234.447C123.293 227.987 124.13 221.583 126.966 215.314C132.579 221.267 136.719 228.063 140.286 235.172L140.288 235.174Z" fill="#D7D2C5" fill-opacity="0.2"/>
<path d="M193.505 101.862C194.344 102.518 195.386 103.128 196.161 103.977C200.274 108.478 202.892 113.773 204.681 119.565C205.666 122.754 206.548 126.19 210.536 127.989C212.897 122.389 208.28 117.951 208.601 112.3C215.013 116.805 219.303 122.061 220.077 129.76C220.51 134.076 219.198 137.981 217.536 141.811C215.813 145.783 213.953 149.697 212.095 153.609C211.9 154.02 211.309 154.248 210.523 154.852C209.421 147.699 204.836 143.19 199.829 138.897C197.063 136.525 194.413 133.968 192.032 131.221C189.11 127.85 187.282 124.01 188.8 119.34C189.189 118.146 189.258 116.853 189.594 115.639C190.833 111.171 192.122 106.718 193.505 101.862Z" fill="#D7D2C5" fill-opacity="0.2"/>
<path d="M167.565 77.2014C166.302 75.512 165.401 74.6608 164.93 73.6163C162.967 69.2581 160.184 65.5745 156.75 62.205C151.381 56.9379 147.892 50.6189 148.408 42.8689C148.596 40.0569 149.607 37.2691 150.461 34.5371C151.103 32.4797 152.088 30.5301 152.925 28.5322C154.94 23.7279 157.322 18.9813 154.982 13.6566C155.648 13.4428 156.136 13.1752 156.228 13.2737C159.185 16.4258 162.473 19.3567 164.945 22.8526C169.229 28.9114 170.076 35.8102 168.728 43.0715C167.812 48.0096 165.577 52.7284 166.078 57.9006C166.251 59.67 166.583 61.4337 166.966 63.1714C167.902 67.407 168.995 71.6221 167.561 77.2014H167.565Z" fill="#D7D2C5" fill-opacity="0.2"/>
<path d="M229.753 105.007C234.722 104.027 239.729 103.197 244.651 102.022C248.806 101.031 252.569 101.818 256.266 103.609C262.367 106.564 271.262 113.937 276.282 120.436C273.285 119.946 270.859 119.509 268.421 119.159C262.174 118.267 256.123 119.658 249.994 120.55C245.335 121.226 240.542 121.343 235.829 121.156C233.587 121.066 231.168 120.048 229.229 118.827C224.374 115.768 219.746 112.35 214.389 108.633C220.148 108.157 225.489 108.025 229.954 104.849L229.753 105.007Z" fill="#D7D2C5" fill-opacity="0.2"/>
<path d="M153.886 80.3123C149.983 80.8624 146.361 77.0264 142.951 80.6895C143.809 83.1614 146.16 83.1446 147.871 83.8639C149.677 84.6222 151.72 84.953 153.695 85.163C162.697 86.1183 170.172 90.5174 177.464 95.3496C177.714 95.515 177.776 95.9573 178.172 96.7881C176.117 96.5762 174.317 96.4387 172.531 96.1952C166.546 95.3812 161.087 97.9051 155.374 98.8064C149.872 99.6744 144.873 98.7172 140.849 94.7084C138.668 92.5376 136.79 90.0695 134.765 87.7464L123.344 74.6716C127.523 73.3428 131.642 71.9638 135.803 70.726C142.709 68.6723 151.092 73.0268 153.888 80.3141L153.886 80.3123Z" fill="#D7D2C5" fill-opacity="0.2"/>
<path d="M185.94 33.0353C186.597 37.1018 188.297 40.0085 190.801 42.5547C194.411 46.2253 195.911 50.9664 196.545 55.7502C197.012 59.274 195.322 62.7643 193.374 65.855C191.73 68.4607 189.808 70.9083 188.318 73.5939C186.668 76.5638 185.37 79.7252 183.684 83.2991C182.913 82.3643 181.616 81.5149 181.59 80.6284C181.506 77.8332 179.973 75.9375 178.396 73.9043C176.85 71.9064 175.435 69.7784 174.209 67.5723C171.659 62.9855 171.537 58.0436 173.917 53.5441C177.617 46.5468 181.904 39.8561 185.94 33.0353Z" fill="#D7D2C5" fill-opacity="0.2"/>
<path d="M125.516 22.3302C130.065 26.3261 134.685 30.0561 138.912 34.182C144.063 39.2094 145.872 45.9056 147.285 52.6818C147.764 54.9752 147.818 57.4006 148.606 59.5732C149.515 62.0748 150.759 64.5504 152.332 66.6988C154.942 70.2653 157.286 73.9006 158.08 78.2904C158.205 78.9892 157.58 79.8219 157.303 80.5931C156.646 80.1322 155.499 79.7531 155.407 79.1993C154.623 74.4563 151.093 72.267 147.291 70.3229C144.206 68.7451 141.038 67.3233 137.962 65.7305C131.855 62.5692 127.761 58.118 128.479 50.6969C128.549 49.9758 128.423 49.2324 128.513 48.515C129.558 40.0773 128.314 31.9202 125.537 23.9379C125.379 23.4825 125.516 22.9268 125.516 22.3284V22.3302Z" fill="#D7D2C5" fill-opacity="0.2"/>
<path d="M197.089 94.4409C199.493 90.5083 201.584 87.2577 203.491 83.9031C204.575 81.9962 205.656 79.4073 203.688 77.9614C201.773 76.5563 199.428 78.2085 197.819 79.6786C196.517 80.8681 195.507 82.4404 194.614 83.9811C193.361 86.1444 192.334 88.4379 191.116 90.8651C190.452 90.3057 189.8 90.0343 189.742 89.6701C188.825 83.9514 188.173 78.3145 191.294 72.8708C194.323 67.5852 199.082 64.9201 204.669 63.3942C207.283 62.6806 210.106 62.6713 212.679 61.8572C216.077 60.7811 219.322 59.2293 222.488 57.9395C221.687 63.6321 221.094 69.4084 220.016 75.0955C218.639 82.3698 215.351 88.3282 207.542 90.7183C204.159 91.7535 200.863 93.086 197.089 94.4409Z" fill="#D7D2C5" fill-opacity="0.2"/>
<path d="M277.607 141.423C274.065 140.841 270.53 140.213 266.979 139.694C264.855 139.384 262.616 138.76 260.582 139.124C254.969 140.129 249.382 140.163 243.705 140.107C233.336 140.005 227.339 133.946 222.707 125.863C221.604 123.938 221.228 121.603 220.17 118.409C221.686 119.412 222.315 119.693 222.765 120.146C225.391 122.787 228.684 123.761 232.263 123.601C236.827 123.399 241.382 122.962 245.932 122.535C251.833 121.981 257.54 122.397 261.133 127.774C264.438 132.719 269.053 135.71 274.245 138.156C275.535 138.763 276.751 139.523 278.002 140.213L277.607 141.423Z" fill="#D7D2C5" fill-opacity="0.2"/>
<path d="M229.953 104.849C224.424 105.283 219.112 104.33 213.767 102.921C208.754 101.6 203.56 100.959 197.65 99.8714C199.259 98.9979 200.229 98.2619 201.325 97.9125C206.11 96.3867 210.248 93.7959 213.93 90.4821C219.688 85.3006 226.19 83.7691 233.674 86.0068C235.392 86.5198 237.308 86.3451 239.113 86.609C240.841 86.8617 242.545 87.2762 244.735 87.7148C240.228 94.5337 237.533 101.903 229.752 105.007L229.953 104.849Z" fill="#D7D2C5" fill-opacity="0.2"/>
<path d="M225.508 68.1932C228.601 64.1602 227.613 59.7462 227.553 55.4846C223.7 54.5479 217.958 55.7176 210.326 58.9935C209.877 53.5796 214.242 51.4776 217.224 48.2289C215.716 48.5375 214.319 48.9984 212.902 49.0727C210.11 49.2214 208.201 50.4108 206.629 52.7563C204.818 55.4567 202.587 57.8877 200.432 60.3447C200.111 60.7108 199.171 60.7535 198.606 60.6086C198.323 60.5342 197.993 59.6384 198.101 59.2203C199.376 54.3528 200.479 49.4203 202.131 44.6773C203.998 39.3136 205.895 38.0591 211.463 38.2654C215.999 38.4345 220.516 39.1166 225.667 39.6351L219.24 47.7847C224.874 47.7532 230.059 47.0506 234.994 43.0158C235.751 49.1099 236.71 54.403 235.24 59.6013C233.936 64.2141 230.293 66.8699 225.508 68.1932Z" fill="#D7D2C5" fill-opacity="0.2"/>
<path d="M111.001 137.934C110.451 138.566 109.92 139.215 109.349 139.828C106.803 142.564 105.744 145.511 107.306 149.226C108.203 151.364 108.349 153.802 109.147 155.993C110.652 160.127 109.045 163.53 106.563 166.5C103.301 170.402 99.6585 173.995 96.0835 177.824C94.4733 177.173 94.2556 175.777 94.4527 174.348C95.0419 170.068 94.1899 166.087 92.3246 162.229C91.7053 160.946 91.4125 159.502 91.0259 158.116C88.8696 150.388 91.9342 143.366 99.2944 140.294C102.86 138.806 106.801 138.2 110.573 137.194L111.001 137.934Z" fill="#D7D2C5" fill-opacity="0.2"/>
<path d="M38.143 230.58C37.7995 230.205 37.1596 229.812 37.199 229.506C37.6738 225.791 38.2593 222.09 38.7923 218.382C39.4923 213.517 42.4855 210.632 47.0664 209.393C50.1891 208.547 53.4151 207.729 56.6204 207.61C61.0099 207.447 65.3318 207.497 69.4079 205.507C70.0666 205.185 71.08 205.579 71.9301 205.642C71.8044 206.616 72.0502 208.023 71.4909 208.491C68.4733 211.028 66.8706 214.415 65.0465 217.747C62.1115 223.112 57.1909 225.897 51.21 226.058C46.8468 226.175 42.8777 226.474 39.7475 229.864C39.421 230.219 38.7923 230.303 38.143 230.58Z" fill="#D7D2C5" fill-opacity="0.2"/>
<path d="M126.227 0.115109C126.966 0.115109 127.874 -0.169246 128.336 0.159713C132.588 3.19654 137.708 3.9381 142.501 5.51784C148.452 7.48045 150.816 11.9223 151.674 17.7302C144.94 16.9738 143.58 18.1112 142.914 24.6681C142.719 26.5972 142.4 28.5152 142.103 30.699C136.417 26.5675 132.093 20.2504 130.552 14.567C129.287 9.90396 127.79 5.30225 126.227 0.115109Z" fill="#D7D2C5" fill-opacity="0.2"/>
<path d="M44.0483 161.028C47.0096 162.045 49.9034 163.391 52.9473 163.989C56.1507 164.617 59.5193 164.887 62.7734 164.68C68.8068 164.296 72.9467 167.355 76.2628 171.629C79.5957 175.928 81.7632 180.803 80.9056 187.535C79.4212 185.739 78.3759 184.79 77.7265 183.624C76.2477 180.974 73.6111 180.19 71.0532 179.32C69.8015 178.894 68.79 180.093 69.4881 181.141C70.7867 183.089 72.2317 184.961 73.7912 186.711C75.437 188.559 77.3831 190.172 77.7021 193.257C72.9129 191.895 68.4278 190.683 63.982 189.341C57.547 187.399 53.6041 182.922 51.324 176.818C49.3761 171.601 47.9836 166.11 43.8062 161.995C43.6842 161.874 43.9601 161.359 44.0483 161.028ZM50.2787 167.05C51.857 170.918 53.2363 174.824 55.0135 178.543C58.063 184.922 64.0721 188.172 70.7342 187.349C69.4055 185.397 67.8385 183.574 66.8326 181.485C65.8455 179.433 62.5426 179.296 62.5745 176.307C65.2919 176.528 67.8216 176.497 70.2425 176.995C72.7572 177.512 75.1649 178.537 77.3906 179.266C75.4971 172.074 70.1618 167.412 62.7584 167.08C58.7931 166.901 54.8108 167.05 50.2787 167.05Z" fill="#D7D2C5" fill-opacity="0.2"/>
<path d="M7.4668 216.174C9.36971 209.309 11.2482 202.78 17.1071 198.409C18.6629 197.247 20.5282 195.76 22.2773 195.727C27.4043 195.628 31.9214 194.169 36.1438 191.443C36.4985 191.214 37.4744 191.233 37.5569 191.411C37.8215 191.982 38.1143 192.887 37.8403 193.301C35.4513 196.907 32.9742 200.457 30.4594 203.98C28.048 207.359 24.6287 208.93 20.532 208.67C16.6511 208.424 13.8587 209.746 11.8638 213.095C10.9968 214.548 9.90268 216.104 7.4668 216.178V216.174Z" fill="#D7D2C5" fill-opacity="0.2"/>
<path d="M101.937 195.404C104.425 191.884 107.625 189.014 106.056 184.379C101.398 185.193 99.6491 189.886 95.725 192.488C95.391 188.711 94.8505 185.566 96.6521 182.535C99.5834 177.61 107.794 174.568 113.431 176.352C115.98 177.159 118.564 177.857 121.202 178.625C118.538 180.53 116.535 182.892 115.161 186.016C112.802 191.378 108.813 194.978 101.935 195.402L101.937 195.404Z" fill="#D7D2C5" fill-opacity="0.2"/>
<path d="M86.4348 144.753C86.7858 141.036 89.6983 137.161 85.7292 133.343L82.1899 139.99C77.0873 130.013 78.9752 126.186 84.7665 121.237C87.0973 119.245 88.9251 116.671 91.1077 114.219C91.9634 115.284 92.6146 115.738 92.5583 116.078C91.8752 120.263 92.9618 124.103 94.0784 128.128C95.2382 132.314 94.8966 136.737 91.3948 140.27C89.9141 141.764 88.7825 143.597 87.4914 145.275L86.4348 144.753Z" fill="#D7D2C5" fill-opacity="0.2"/>
<path d="M85.9126 227.9C82.6923 224.259 78.9353 221.302 77.5747 216.626C75.319 208.867 78.1227 202.769 85.6292 199.572C87.3558 198.836 88.8665 196.86 91.0903 198.496C93.3704 200.172 92.4002 202.668 92.0399 204.512C91.5782 206.88 90.3246 209.355 88.7201 211.192C85.085 215.351 83.2027 219.609 85.618 225.019C85.9933 225.859 85.8282 226.933 85.9126 227.9Z" fill="#D7D2C5" fill-opacity="0.2"/>
<path d="M237.835 56.4435C242.187 56.5662 242.333 60.1234 242.932 62.5989C243.594 65.3384 243.461 68.4013 243.048 71.2318C242.33 76.1476 237.841 79.6881 231.858 80.8813C228.352 81.5801 224.901 82.5558 221.277 83.4423C220.414 81.3626 221.801 79.6156 223.342 78.086C226.825 74.631 230.231 71.0552 234.052 67.9998C236.745 65.8458 238.28 63.6973 237.642 60.1959C237.426 59.0139 237.752 57.7333 237.835 56.4417V56.4435Z" fill="#D7D2C5" fill-opacity="0.2"/>
<path d="M41.5792 184.715C36.5873 181.537 33.9713 176.887 32.4587 171.284C31.5297 167.838 29.8089 164.587 28.2982 161.316C25.9918 156.319 21.7656 154.338 16.4359 154.063C14.5574 153.966 12.6976 153.488 10.8848 152.537C17.4924 151.875 24.072 150.147 30.5877 152.392C36.287 154.356 39.7288 158.899 42.5231 163.85C43.9775 166.426 44.7676 169.371 45.0679 172.51C42.8628 168.572 41.0237 164.366 38.3476 160.772C35.619 157.107 31.2877 155.427 26.7762 154.163C31.5279 160.428 34.4179 167.438 37.246 174.525C39.635 180.511 42.1797 182.206 48.9488 183.29C48.2075 181.898 47.4981 180.757 46.9745 179.536C46.4341 178.279 46.0737 176.947 46.3158 175.354L52.2479 184.84C48.337 187.232 44.9327 184.555 41.414 184.546L41.5792 184.715Z" fill="#D7D2C5" fill-opacity="0.2"/>
<path d="M34.9732 210.796C34.6035 215.004 30.5256 214.849 28.1742 217.516L35.951 215.905C35.3504 219.921 33.4757 222.696 31.6591 225.467C30.2685 227.588 27.8026 227.497 25.7289 227.655C22.045 227.937 18.3236 227.735 14.5234 227.735C15.7827 224.724 16.8242 221.315 18.5657 218.302C20.6732 214.656 23.385 211.536 28.4237 211.805C30.4824 211.915 32.5843 211.19 34.9732 210.796Z" fill="#D7D2C5" fill-opacity="0.2"/>
<path d="M32.4612 129.093C33.1725 130.788 34.1314 132.427 34.5462 134.191C35.6065 138.7 38.5622 141.36 42.6645 143.038C44.0101 143.588 45.3688 144.127 46.765 144.523C53.3445 146.389 57.719 150.741 60.8793 156.557C62.1666 158.924 63.6454 161.19 65.2443 163.846C64.1784 163.576 63.0449 163.595 62.3374 163.062C56.9589 159.012 50.9274 156.902 44.2203 156.215C35.3212 155.302 29.8358 148.119 30.8886 138.603C31.5717 140.112 32.3974 141.189 32.5213 142.337C33.3658 150.162 39.0482 152.542 45.6034 153.944C49.5969 154.797 53.6204 155.516 57.7603 156.319C55.4276 152.295 51.8714 149.437 47.45 147.573C45.7816 146.868 44.0307 146.329 42.2798 145.846C36.7081 144.311 33.91 140.362 32.647 135.08C32.1985 133.201 31.9039 131.286 31.5398 129.389L32.4631 129.095L32.4612 129.093Z" fill="#D7D2C5" fill-opacity="0.2"/>
<path d="M41.4175 184.546C41.0084 185.267 40.7663 186.399 40.162 186.64C36.4556 188.124 32.7455 189.748 28.874 190.62C26.7515 191.099 24.2743 190.369 22.028 189.871C20.0913 189.441 18.1865 188.711 16.3868 187.863C12.5753 186.07 9.33435 186.986 6.25666 189.504C4.62585 190.839 2.55967 193.526 0.782483 191.828C-1.23116 189.902 1.59507 187.668 2.75859 185.815C4.10226 183.674 5.66363 181.615 7.41454 179.788C12.5866 174.393 20.8363 172.599 27.2488 177.27C29.4595 178.879 31.7265 180.424 34.046 181.873C36.3505 183.314 38.6475 184.871 41.5807 184.717L41.4175 184.546ZM35.1739 185.553C31.7152 183.013 28.9078 180.662 25.8169 178.758C22.4146 176.662 18.5862 176.296 14.7748 177.666C10.5148 179.197 8.11266 181.648 6.82903 185.39C12.686 184.122 12.9112 184.078 19.3819 186.455C24.5183 188.341 29.5308 188.936 35.1739 185.553Z" fill="#D7D2C5" fill-opacity="0.2"/>
<path d="M33.6077 209.361C33.5814 208.135 33.1723 206.897 33.6077 206.129C35.3811 202.994 37.8151 200.178 39.2639 196.92C41.9062 190.973 52.6125 186.851 58.5539 189.981C60.6201 191.068 62.8833 191.796 65.0865 192.61C68.5639 193.896 72.0658 195.117 75.5901 196.378C75.5901 196.456 75.6633 196.749 75.5789 196.803C72.9196 198.513 70.0277 199.942 67.6369 201.959C65.1653 204.042 62.4555 205.075 59.4003 205.85C57.1539 206.419 55.2323 206.402 53.0666 205.572C49.045 204.029 44.8563 203.853 40.8215 205.522C38.532 206.468 36.4245 207.841 33.6077 209.361ZM39.3971 202.91C43.7265 201.857 47.3841 201.607 51.1337 203.039C55.647 204.761 60.0834 204.111 64.1163 201.513C66.0849 200.245 67.8358 198.641 69.81 197.091C66.3777 195.534 62.9096 194.088 59.5636 192.41C55.2867 190.265 51.2219 191.259 46.9619 192.54C43.0904 193.703 41.8499 196.759 40.4931 199.885C40.1365 200.704 39.8794 201.567 39.3971 202.91Z" fill="#D7D2C5" fill-opacity="0.2"/>
<path d="M241.1 99.6561C241.132 97.0876 242.577 95.7644 244.459 94.9615C247.758 93.5527 251.055 92.0269 254.504 91.0995C259.782 89.6814 266.17 93.8389 267.461 99.1413C268.262 102.427 267.284 103.561 264.017 102.81C261.217 102.167 258.382 101.466 255.749 100.359C251.787 98.6915 247.923 97.6954 243.729 99.4443C242.984 99.7546 242.04 99.5929 241.1 99.6561Z" fill="#D7D2C5" fill-opacity="0.2"/>
<path d="M85.5521 184.819C86.207 177.305 82.069 171.969 77.1991 167.243C72.4156 162.6 70.0829 161.045 74.5118 151.477C75.8648 148.552 77.171 145.604 78.5634 142.523C79.2972 146.178 81.8157 148.788 84.5105 151.308C91.09 157.46 93.0136 165.057 90.8967 173.577C89.9171 177.522 88.1587 181.279 86.755 185.12L85.5521 184.819ZM77.9779 148.693C77.2948 150.211 76.6718 151.65 76.0018 153.068C73.7104 157.909 74.2321 161.892 78.8036 165.423C83.0148 168.676 86.3684 172.787 87.1397 178.985C91.6399 165.449 89.4029 158.251 77.9779 148.693Z" fill="#D7D2C5" fill-opacity="0.2"/>
<path d="M51.3631 114.301C50.9521 118.304 52.9057 120.975 55.9234 123.045C56.0735 123.148 56.1955 123.289 56.3456 123.393C62.4147 127.668 63.5407 133.909 63.1766 140.649C63.0509 142.969 62.1839 145.242 63.3924 147.556C63.6195 147.992 63.2535 149.128 62.82 149.397C62.3678 149.678 61.0898 149.533 60.8758 149.169C58.3348 144.827 53.5475 143.365 49.8149 140.579C47.3039 138.704 45.9584 136.432 45.8233 133.303C45.6262 128.733 46.0391 124.335 48.139 120.144C49.0548 118.319 49.4902 116.256 50.1433 114.301L51.3669 114.297L51.3631 114.301ZM59.8718 143.84C63.3023 135.511 58.7909 126.101 49.8093 121.717C47.6905 124.542 48.3849 127.844 48.1071 131.011C47.76 134.97 49.6366 137.507 52.7969 139.451C55.107 140.871 57.4059 142.309 59.8718 143.84Z" fill="#D7D2C5" fill-opacity="0.2"/>
<path d="M236.811 83.8385C238.999 80.1288 242.324 79.0137 245.604 78.1105C249.727 76.9749 253.935 76.9935 257.844 79.0286C261.695 81.0339 261.841 83.7121 258.401 86.485C254.34 89.7597 252.974 89.9177 248.881 86.6764C246.599 84.8681 244.302 83.8849 241.375 84.1507C240.018 84.2734 238.62 83.9779 236.811 83.8385Z" fill="#D7D2C5" fill-opacity="0.2"/>
<path d="M173.661 46.4538C173.036 45.4242 171.974 44.4391 171.862 43.3556C171.376 38.7242 170.55 34.0686 173.545 29.7364C175.375 27.0917 176.64 24.0623 178.415 20.7244C180.201 23.7333 181.797 26.2256 183.15 28.8405C183.469 29.4576 183.195 30.6043 182.814 31.3031C181.868 33.0352 180.751 34.6838 179.616 36.3062C177.456 39.3877 174.489 42.0417 174.744 46.3627L173.663 46.4538H173.661Z" fill="#D7D2C5" fill-opacity="0.2"/>
<path d="M67.7646 117.678C70.1986 120.062 72.7978 122.269 74.9822 124.82C79.1258 129.664 78.8612 135.064 76.1926 140.464C74.9221 143.034 73.2782 145.424 71.638 148.175C69.6431 145.082 67.5206 142.211 65.8748 139.092C64.7151 136.895 64.1145 134.462 64.9891 131.792C66.3534 127.625 68.2469 123.469 66.8038 118.877C66.7494 118.702 67.1922 118.375 67.7646 117.678ZM72.3849 143.285C77.191 134.973 76.7481 130.296 70.831 124.248C66.5279 130.009 64.1052 134.892 72.3849 143.285Z" fill="#D7D2C5" fill-opacity="0.2"/>
<path d="M208.831 32.0556C207.33 33.2581 206.048 34.5051 204.562 35.4251C202.012 37.0067 199.837 38.7612 198.987 41.8221C198.788 42.5377 197.782 43.0339 197.146 43.6305C196.479 42.9019 195.451 42.2738 195.207 41.4263C194.227 38.0066 192.546 34.5758 194.764 30.9721C196.128 28.7549 198.345 27.4241 200.208 28.6991C202.488 30.2584 204.855 30.5446 207.377 30.8383C207.807 30.8884 208.173 31.4832 208.831 32.0556Z" fill="#D7D2C5" fill-opacity="0.2"/>
<path d="M29.0662 174.38C28.6327 174.531 28.2105 174.837 27.9815 174.731C23.335 172.576 18.6358 171.02 13.3193 171.34C12.0019 171.42 10.2604 169.544 9.23572 168.184C7.97274 166.506 7.2521 164.426 6.00977 161.945C7.26149 162.071 8.01215 162.205 8.76281 162.212C11.2719 162.237 13.8504 162.584 16.275 162.138C21.5653 161.16 23.8098 161.967 25.9623 166.621C27.1295 169.147 28.0378 171.789 29.0662 174.38ZM24.5304 169.853C21.9087 164.043 21.5127 163.84 15.3667 164.957C14.6573 165.086 13.8692 164.881 13.1917 165.08C12.4091 165.309 11.7073 165.81 10.9697 166.195C11.4746 166.857 11.8424 167.812 12.5105 168.115C13.796 168.699 15.2335 169.074 16.6428 169.243C19.2626 169.557 21.9087 169.661 24.5304 169.853Z" fill="#D7D2C5" fill-opacity="0.2"/>
</svg>
