<svg data-name="Layer 2" version="1.1" viewBox="0 0 271.97 141.69" xmlns="http://www.w3.org/2000/svg">
 <g fill="#F3F1E8">
  <path d="m196.31 80.984c-2.1827 0.82-4.4451 0.82062-6.7891 2e-3 -0.21812 1.1503-0.6588 2.2748-0.58984 3.3672 0.136 2.164-0.56594 4.0194-1.5859 5.8184-0.673 1.187-1.3262 2.3959-2.1152 3.5059-4.3774 6.1544-8.0974 12.676-11.543 19.348 0.52811 0.41048 1.0784 0.80041 1.6523 1.166 2.5587-5.1487 5.2996-10.204 8.6758-14.922 3.515-4.912 6.3048-10.335 10.508-14.764 0.893-0.941 1.5311-2.0645 1.7871-3.5215z"/>
  <path d="m199.45 82.304c0.447 0.353 1.002 0.681 1.415 1.138 2.192 2.422 3.587 5.271 4.54 8.387 0.525 1.716 0.995 3.565 3.12 4.533 1.258-3.013-1.202-5.401-1.031-8.442 3.417 2.424 5.703 5.252 6.115 9.395 0.231 2.322-0.468 4.423-1.354 6.484-0.918 2.137-1.909 4.243-2.899 6.348-0.104 0.221-0.419 0.344-0.838 0.669-0.587-3.849-3.03-6.275-5.698-8.585-1.474-1.276-2.886-2.652-4.155-4.13-1.557-1.814-2.531-3.88-1.722-6.393 0.207-0.642 0.244-1.338 0.423-1.991 0.66-2.404 1.347-4.8 2.084-7.413z"/>
  <path d="m185.63 69.035c-0.673-0.909-1.153-1.367-1.404-1.929-1.046-2.345-2.529-4.327-4.359-6.14-2.861-2.834-4.72-6.234-4.445-10.404 0.1-1.513 0.639-3.013 1.094-4.483 0.342-1.107 0.867-2.156 1.313-3.231 1.074-2.585 2.343-5.139 1.096-8.004 0.355-0.115 0.615-0.259 0.664-0.206 1.576 1.696 3.328 3.273 4.645 5.154 2.283 3.26 2.734 6.972 2.016 10.879-0.488 2.657-1.679 5.196-1.412 7.979 0.092 0.952 0.269 1.901 0.473 2.836 0.499 2.279 1.081 4.547 0.317 7.549z"/>
  <path d="m218.77 83.996c2.648-0.527 5.316-0.974 7.939-1.606 2.214-0.533 4.219-0.11 6.189 0.854 3.251 1.59 7.991 5.557 10.666 9.054-1.597-0.264-2.89-0.499-4.189-0.687-3.329-0.48-6.553 0.268-9.819 0.748-2.483 0.364-5.037 0.427-7.548 0.326-1.195-0.048-2.484-0.596-3.517-1.253-2.587-1.646-5.053-3.485-7.908-5.485 3.069-0.256 5.915-0.327 8.294-2.036z"/>
  <path d="m178.34 70.709c-2.08 0.296-4.01-1.768-5.827 0.203 0.457 1.33 1.71 1.321 2.622 1.708 0.962 0.408 2.051 0.586 3.103 0.699 4.797 0.514 8.78 2.881 12.666 5.481 0.133 0.089 0.166 0.327 0.377 0.774-1.095-0.114-2.054-0.188-3.006-0.319-3.189-0.438-6.098 0.92-9.142 1.405-2.932 0.467-5.596-0.048-7.74-2.205-1.162-1.168-2.163-2.496-3.242-3.746l-6.086-7.035c2.227-0.715 4.422-1.457 6.639-2.123 3.68-1.105 8.147 1.238 9.637 5.159z"/>
  <path d="m195.42 45.271c0.35 2.188 1.256 3.752 2.59 5.122 1.924 1.975 2.723 4.526 3.061 7.1 0.249 1.896-0.652 3.774-1.69 5.437-0.876 1.402-1.9 2.719-2.694 4.164-0.879 1.598-1.571 3.299-2.469 5.222-0.411-0.503-1.102-0.96-1.116-1.437-0.045-1.504-0.862-2.524-1.702-3.618-0.824-1.075-1.578-2.22-2.231-3.407-1.359-2.468-1.424-5.127-0.156-7.548 1.972-3.765 4.256-7.366 6.407-11.036z"/>
  <path d="m163.22 39.51c2.424 2.15 4.886 4.157 7.138 6.377 2.745 2.705 3.709 6.308 4.462 9.954 0.255 1.234 0.284 2.539 0.704 3.708 0.484 1.346 1.147 2.678 1.985 3.834 1.391 1.919 2.64 3.875 3.063 6.237 0.067 0.376-0.266 0.824-0.414 1.239-0.35-0.248-0.961-0.452-1.01-0.75-0.418-2.552-2.299-3.73-4.325-4.776-1.644-0.849-3.332-1.614-4.971-2.471-3.254-1.701-5.436-4.096-5.053-8.089 0.037-0.388-0.03-0.788 0.018-1.174 0.557-4.54-0.106-8.929-1.586-13.224-0.084-0.245-0.011-0.544-0.011-0.866z"/>
  <path d="m201.36 78.311c1.281-2.116 2.395-3.865 3.411-5.67 0.578-1.026 1.154-2.419 0.105-3.197-1.02-0.756-2.27 0.133-3.127 0.924-0.694 0.64-1.232 1.486-1.708 2.315-0.668 1.164-1.215 2.398-1.864 3.704-0.354-0.301-0.701-0.447-0.732-0.643-0.489-3.077-0.836-6.11 0.827-9.039 1.614-2.844 4.15-4.278 7.127-5.099 1.393-0.384 2.897-0.389 4.268-0.827 1.811-0.579 3.54-1.414 5.227-2.108-0.427 3.063-0.743 6.171-1.317 9.231-0.734 3.914-2.486 7.12-6.647 8.406-1.803 0.557-3.558 1.274-5.569 2.003z"/>
  <path d="m244.27 103.59c-1.887-0.313-3.771-0.651-5.663-0.93-1.132-0.167-2.325-0.503-3.409-0.307-2.991 0.541-5.968 0.559-8.993 0.529-5.525-0.055-8.721-3.315-11.189-7.664-0.588-1.036-0.788-2.292-1.352-4.011 0.808 0.54 1.143 0.691 1.383 0.935 1.399 1.421 3.154 1.945 5.061 1.859 2.432-0.109 4.859-0.344 7.284-0.574 3.144-0.298 6.185-0.074 8.1 2.819 1.761 2.661 4.22 4.27 6.987 5.586 0.687 0.327 1.335 0.736 2.002 1.107l-0.211 0.65z"/>
  <path d="m218.87 83.911c-2.946 0.234-5.777-0.279-8.625-1.037-2.671-0.711-5.439-1.056-8.588-1.641 0.857-0.47 1.374-0.866 1.958-1.054 2.55-0.821 4.755-2.215 6.717-3.998 3.068-2.788 6.533-3.612 10.521-2.408 0.915 0.276 1.936 0.182 2.898 0.324 0.921 0.136 1.829 0.359 2.996 0.595-2.402 3.669-3.838 7.634-7.984 9.304z"/>
  <path d="m216.5 64.188c1.648-2.17 1.122-4.545 1.09-6.838q-3.08-0.756-9.18 1.888c-0.239-2.913 2.087-4.044 3.676-5.792-0.804 0.166-1.548 0.414-2.303 0.454-1.488 0.08-2.505 0.72-3.343 1.982-0.965 1.453-2.154 2.761-3.302 4.083-0.171 0.197-0.672 0.22-0.973 0.142-0.151-0.04-0.327-0.522-0.269-0.747 0.679-2.619 1.267-5.273 2.147-7.825 0.995-2.886 2.006-3.561 4.973-3.45 2.417 0.091 4.824 0.458 7.569 0.737l-3.425 4.385c3.002-0.017 5.765-0.395 8.395-2.566 0.403 3.279 0.914 6.127 0.131 8.924-0.695 2.482-2.636 3.91-5.186 4.622z"/>
  <path d="m163.6 27.558c0.394 0 0.878-0.153 1.124 0.024 2.266 1.634 4.994 2.033 7.548 2.883 3.171 1.056 4.431 3.446 4.888 6.571-3.588-0.407-4.313 0.205-4.668 3.733-0.104 1.038-0.274 2.07-0.432 3.245-3.03-2.223-5.334-5.622-6.155-8.68-0.674-2.509-1.472-4.985-2.305-7.776z"/>
  <path d="m223.07 57.865c2.319 0.066 2.397 1.98 2.716 3.312 0.353 1.474 0.282 3.122 0.062 4.645-0.383 2.645-2.775 4.55-5.963 5.192-1.868 0.376-3.707 0.901-5.638 1.378-0.46-1.119 0.279-2.059 1.1-2.882 1.856-1.859 3.671-3.783 5.707-5.427 1.435-1.159 2.253-2.315 1.913-4.199-0.115-0.636 0.059-1.325 0.103-2.02z"/>
  <path d="m224.81 81.117c0.017-1.382 0.787-2.094 1.79-2.526 1.758-0.758 3.515-1.579 5.353-2.078 2.812-0.763 6.216 1.474 6.904 4.327 0.427 1.768-0.094 2.378-1.835 1.974-1.492-0.346-3.003-0.723-4.406-1.319-2.111-0.897-4.17-1.433-6.405-0.492-0.397 0.167-0.9 0.08-1.401 0.114z"/>
  <path d="m222.53 72.606c1.166-1.996 2.938-2.596 4.686-3.082 2.197-0.611 4.439-0.601 6.522 0.494 2.052 1.079 2.13 2.52 0.297 4.012-2.164 1.762-2.892 1.847-5.073 0.103-1.216-0.973-2.44-1.502-4-1.359-0.723 0.066-1.467-0.093-2.431-0.168z"/>
  <path d="m188.88 52.49c-0.333-0.554-0.899-1.084-0.959-1.667-0.259-2.492-0.699-4.997 0.897-7.328 0.975-1.423 1.649-3.053 2.595-4.849 0.952 1.619 1.802 2.96 2.523 4.367 0.17 0.332 0.024 0.949-0.179 1.325-0.504 0.932-1.099 1.819-1.704 2.692-1.151 1.658-2.732 3.086-2.596 5.411l-0.576 0.049z"/>
  <path d="m207.62 44.744c-0.8 0.647-1.483 1.318-2.275 1.813-1.359 0.851-2.518 1.795-2.971 3.442-0.106 0.385-0.642 0.652-0.981 0.973-0.355-0.392-0.903-0.73-1.033-1.186-0.522-1.84-1.418-3.686-0.236-5.625 0.727-1.193 1.908-1.909 2.901-1.223 1.215 0.839 2.476 0.993 3.82 1.151 0.229 0.027 0.423 0.347 0.774 0.655z"/>
  <path d="m52.36 55.354c-1.655 0.993-3.744 1.489-6.268 1.489-0.662 0-1.624-0.106-2.885-0.32-1.262-0.214-2.176-0.321-2.741-0.321-1.31 0-2.351 0.386-3.123 1.158s-1.159 1.813-1.159 3.124c0 0.124 0.034 0.314 0.104 0.569 0.069 0.255 0.104 0.445 0.104 0.569 0 0.221-0.097 0.331-0.29 0.331-0.483 0-0.724-0.662-0.724-1.986 0-1.792 0.634-3.227 1.903-4.302 1.2-1.021 2.709-1.531 4.53-1.531 0.689 0 1.8 0.131 3.331 0.393 1.53 0.262 2.696 0.393 3.496 0.393 2.248 0 4.103-0.524 5.564-1.572 0.055-0.042 0.138-0.096 0.248-0.166 0.138 0.042 0.207 0.117 0.207 0.228 0 0.069-0.297 0.531-0.89 1.386-0.69 0.979-1.055 1.503-1.096 1.572-1.296 2.11-2.827 5.302-4.592 9.577-2.165 5.254-4.068 9.122-5.709 11.604-3.089 4.661-6.378 6.992-9.867 6.992-1.324 0-2.468-0.386-3.434-1.159-1.048-0.841-1.572-1.91-1.572-3.206 0-0.717 0.214-1.328 0.641-1.831 0.428-0.503 0.993-0.755 1.696-0.755 1.186 0 1.779 0.524 1.779 1.572 0 1.159-0.779 1.751-2.337 1.779h-0.6c0.386 1.917 1.648 2.875 3.786 2.875 2.455 0 4.923-1.979 7.405-5.937 1.034-1.627 2.579-4.703 4.633-9.226 2.896-6.385 5.516-10.818 7.86-13.301z"/>
  <path d="m62.33 67.765c-2.786 5.034-4.179 8.212-4.179 9.536 0 0.869 0.365 1.303 1.097 1.303 0.606 0 1.048-0.269 1.324-0.807 0.275-0.538 0.427-0.807 0.455-0.807 0.138 0 0.207 0.076 0.207 0.228 0 0.538-0.2 0.982-0.6 1.334s-0.876 0.528-1.427 0.528c-0.138 0-0.49-0.049-1.055-0.145-0.855-0.166-1.606-0.207-2.254-0.124l-0.249-1.138c-1.282 0.938-2.496 1.407-3.641 1.407-1.131 0-2.027-0.338-2.689-1.014s-0.993-1.579-0.993-2.71c0-2.055 1.079-3.875 3.237-5.461 2.158-1.585 4.719-2.378 7.685-2.378 1.227 0 2.254 0.083 3.082 0.248zm-2.069 0.331h-0.683c-2.703 0-4.951 0.679-6.743 2.038-1.793 1.358-2.689 2.968-2.689 4.83 0 1.986 1.014 2.979 3.041 2.979 0.938 0 1.896-0.373 2.875-1.117 0.841-2.937 2.241-5.847 4.199-8.729z"/>
  <path d="m77.492 67.848-4.22 8.439c-0.317 0.634-0.476 1.124-0.476 1.468 0 0.483 0.255 0.724 0.765 0.724 0.138 0 0.321-0.09 0.548-0.269 0.228-0.179 0.369-0.269 0.424-0.269 0.138 0 0.207 0.069 0.207 0.207 0 0.276-0.2 0.497-0.6 0.662-0.317 0.151-0.634 0.228-0.952 0.228-0.165 0-0.452-0.045-0.858-0.134-0.407-0.09-0.721-0.135-0.941-0.135-0.566 0-1.069 0.09-1.51 0.269 0.317-0.322 0.655-0.765 1.014-1.329-0.042-0.107-0.124-0.161-0.248-0.161 0.041 0-0.4 0.248-1.324 0.745s-1.772 0.745-2.544 0.745c-2.11 0-3.165-0.875-3.165-2.627 0-0.538 0.221-1.283 0.662-2.234l2.337-5.047c-1.296 0.304-2.014 0.455-2.151 0.455-0.152 0-0.228-0.069-0.228-0.207 0-0.11 0.096-0.193 0.29-0.248l4.917-1.281-3.343 6.825c-0.442 0.896-0.664 1.572-0.664 2.027 0 1.048 0.62 1.572 1.861 1.572 1.916 0 3.453-1.2 4.612-3.601l2.71-5.605c-0.841 0.208-1.275 0.311-1.302 0.311-0.207 0-0.31-0.069-0.31-0.207s0.131-0.241 0.393-0.311l4.096-1.013z"/>
  <path d="m91.662 54.072c0.207 0 0.455 0.069 0.745 0.207s0.434 0.297 0.434 0.476c0 0.124-0.069 0.2-0.207 0.228-0.69-0.234-1.069-0.352-1.138-0.352-0.717 0-1.793 1.6-3.227 4.799l-4.571 10.198c1.531-1.434 3.24-2.151 5.13-2.151 1.999 0 2.999 0.662 2.999 1.986 0 1.089-0.71 2.083-2.13 2.979-1.062 0.676-2.262 1.179-3.599 1.51 0.344 0.731 0.613 1.606 0.807 2.627 0.193 1.021 0.489 1.531 0.89 1.531 0.179 0 0.386-0.086 0.621-0.259 0.234-0.172 0.386-0.258 0.455-0.258 0.11 0 0.193 0.069 0.248 0.207 0 0.262-0.152 0.5-0.455 0.714-0.304 0.213-0.593 0.32-0.869 0.32-0.166 0-0.411-0.038-0.734-0.114-0.324-0.076-0.569-0.114-0.734-0.114-0.29 0-0.869 0.145-1.738 0.435 0.276-0.469 0.414-0.965 0.414-1.489 0-0.704-0.166-1.496-0.497-2.379-0.331-0.745-0.655-1.489-0.972-2.234 0.799 0.166 1.517 0.248 2.151 0.248 0.923 0 1.82-0.282 2.689-0.848 0.979-0.648 1.469-1.406 1.469-2.275 0-1.02-0.683-1.531-2.048-1.531-2.772 0-5.13 2.452-7.075 7.354-0.386 0.983-0.579 1.606-0.579 1.87 0 0.374 0.193 0.561 0.579 0.561-0.014 0 0.228-0.069 0.724-0.207 0.138 0.041 0.207 0.124 0.207 0.248 0 0.455-0.448 0.683-1.345 0.683-0.207 0-0.514-0.059-0.92-0.176s-0.721-0.176-0.941-0.176c-0.207 0-0.52 0.059-0.941 0.176-0.42 0.117-0.741 0.176-0.962 0.176-0.827 0-1.241-0.174-1.241-0.522 0-0.272 0.104-0.408 0.311-0.408 0.097 0 0.245 0.034 0.445 0.103s0.348 0.104 0.444 0.104c0.648 0 1.689-1.471 3.124-4.413l6.02-12.391c0.772-1.588 1.275-2.604 1.51-3.046 0.634-1.16 1.262-2.113 1.882-2.859 0.855-1.022 1.73-1.533 2.627-1.533z"/>
  <path d="m106.51 67.848-4.22 8.439c-0.317 0.634-0.476 1.124-0.476 1.468 0 0.483 0.255 0.724 0.765 0.724 0.138 0 0.321-0.09 0.548-0.269 0.228-0.179 0.369-0.269 0.424-0.269 0.138 0 0.207 0.069 0.207 0.207 0 0.276-0.2 0.497-0.6 0.662-0.317 0.151-0.634 0.228-0.952 0.228-0.165 0-0.452-0.045-0.858-0.134-0.407-0.09-0.721-0.135-0.941-0.135-0.566 0-1.069 0.09-1.51 0.269 0.317-0.322 0.655-0.765 1.014-1.329-0.042-0.107-0.124-0.161-0.248-0.161 0.041 0-0.4 0.248-1.324 0.745s-1.772 0.745-2.544 0.745c-2.11 0-3.165-0.875-3.165-2.627 0-0.538 0.221-1.283 0.662-2.234l2.337-5.047c-1.296 0.304-2.014 0.455-2.151 0.455-0.152 0-0.228-0.069-0.228-0.207 0-0.11 0.096-0.193 0.29-0.248l4.917-1.281-3.343 6.825c-0.442 0.896-0.664 1.572-0.664 2.027 0 1.048 0.62 1.572 1.861 1.572 1.916 0 3.453-1.2 4.612-3.601l2.71-5.605c-0.841 0.208-1.275 0.311-1.302 0.311-0.207 0-0.31-0.069-0.31-0.207s0.131-0.241 0.393-0.311l4.096-1.013z"/>
  <path d="m110.8 69.379c-0.152 0.028-0.517 0.152-1.096 0.373-0.497 0.179-0.821 0.269-0.972 0.269-0.193 0-0.29-0.09-0.29-0.269 0-0.124 0.603-0.396 1.81-0.817s2.258-0.81 3.155-1.169l-0.952 2.544c1.862-1.862 3.799-2.792 5.812-2.792 1.751 0 2.627 0.751 2.627 2.254v0.538c1.549-1.862 3.161-2.792 4.834-2.792 1.714 0 2.571 0.886 2.571 2.658 0 1.044-0.734 2.614-2.203 4.708-1.469 2.095-2.203 3.129-2.203 3.101 0 0.165 0.076 0.248 0.228 0.248 0.675-0.345 1.138-0.517 1.386-0.517 0.124 0 0.3 0.014 0.527 0.041 0.228 0.028 0.404 0.042 0.528 0.042 0.441 0 0.854-0.11 1.241-0.331-0.096 0.511-0.434 0.91-1.013 1.2-0.497 0.249-1.034 0.373-1.614 0.373-0.193 0-0.483-0.045-0.869-0.134-0.386-0.09-0.676-0.135-0.869-0.135-0.097 0-0.593 0.09-1.489 0.269 2.909-3.599 4.364-6.33 4.364-8.191 0-1.351-0.621-2.027-1.861-2.027-0.855 0-1.704 0.384-2.544 1.153-0.717 0.646-1.283 1.415-1.696 2.307l-2.027 4.346c-0.249 0.536-0.373 0.913-0.373 1.133 0 0.426 0.31 0.639 0.931 0.639 0.276 0 0.869-0.172 1.779-0.517 0.11 0.055 0.166 0.131 0.166 0.228 0 0.303-0.29 0.565-0.869 0.786-0.469 0.179-0.889 0.269-1.262 0.269-0.248 0-0.614-0.055-1.096-0.166-0.483-0.11-0.848-0.166-1.096-0.166-0.235 0-0.59 0.035-1.065 0.104s-0.831 0.104-1.065 0.104c-0.979 0-1.469-0.164-1.469-0.491 0-0.183 0.083-0.274 0.249-0.274 0.11 0 0.272 0.021 0.486 0.062s0.375 0.062 0.486 0.062c0.882 0 1.647-0.751 2.296-2.255l2.193-5.068c0.234-0.538 0.352-0.952 0.352-1.241 0-0.896-0.538-1.344-1.613-1.344-2.621 0-4.923 2.103-6.909 6.309-0.703 1.503-1.055 2.475-1.055 2.917 0 0.455 0.228 0.683 0.683 0.683 0.207 0 0.613-0.172 1.22-0.517 0.138 0.041 0.207 0.131 0.207 0.269 0 0.221-0.283 0.435-0.848 0.642-0.483 0.166-0.876 0.248-1.179 0.248-0.234 0-0.586-0.045-1.055-0.134-0.469-0.09-0.82-0.135-1.055-0.135-0.262 0-0.617 0.086-1.065 0.259-0.448 0.172-0.734 0.258-0.858 0.258-0.166 0-0.248-0.097-0.248-0.29 0 0.014 0.386-0.172 1.158-0.559 0.772-0.386 1.648-1.833 2.627-4.344 0.786-2.041 1.441-3.613 1.965-4.716z"/>
  <path d="m143.93 67.765c-2.786 5.034-4.179 8.212-4.179 9.536 0 0.869 0.365 1.303 1.097 1.303 0.606 0 1.048-0.269 1.324-0.807 0.275-0.538 0.427-0.807 0.455-0.807 0.138 0 0.207 0.076 0.207 0.228 0 0.538-0.2 0.982-0.6 1.334s-0.876 0.528-1.427 0.528c-0.138 0-0.49-0.049-1.055-0.145-0.855-0.166-1.606-0.207-2.254-0.124l-0.249-1.138c-1.282 0.938-2.496 1.407-3.641 1.407-1.131 0-2.027-0.338-2.689-1.014s-0.993-1.579-0.993-2.71c0-2.055 1.079-3.875 3.237-5.461 2.158-1.585 4.719-2.378 7.685-2.378 1.227 0 2.254 0.083 3.082 0.248zm-2.069 0.331h-0.683c-2.703 0-4.951 0.679-6.743 2.038-1.793 1.358-2.689 2.968-2.689 4.83 0 1.986 1.014 2.979 3.041 2.979 0.938 0 1.896-0.373 2.875-1.117 0.841-2.937 2.241-5.847 4.199-8.729z"/>
  <path d="m105.09 50.589c0.386 0.052 0.749 0.154 1.089 0.309 0.34 0.154 0.636 0.347 0.886 0.578 0.251 0.231 0.446 0.498 0.588 0.8s0.212 0.633 0.212 0.993c0 0.437-0.077 0.838-0.231 1.205s-0.363 0.681-0.626 0.944-0.568 0.469-0.916 0.617c-0.347 0.148-0.72 0.222-1.118 0.222-0.412 0-0.794-0.077-1.147-0.231-0.354-0.154-0.659-0.363-0.916-0.626s-0.459-0.569-0.607-0.916-0.222-0.72-0.222-1.118h0.771c0 0.617 0.189 1.125 0.569 1.523 0.379 0.398 0.896 0.597 1.552 0.597 0.617 0 1.124-0.195 1.522-0.587s0.598-0.935 0.598-1.629c0-0.552-0.2-0.986-0.598-1.301s-0.906-0.523-1.522-0.626c-0.347-0.051-0.672-0.145-0.974-0.28s-0.565-0.302-0.79-0.501-0.405-0.427-0.54-0.684-0.202-0.54-0.202-0.848c0-0.386 0.064-0.739 0.193-1.06 0.128-0.321 0.308-0.594 0.54-0.819 0.231-0.225 0.498-0.401 0.8-0.53s0.626-0.193 0.974-0.193c0.54 0 1.028 0.132 1.465 0.395 0.437 0.264 0.777 0.607 1.021 1.031l-0.617 0.405c-0.167-0.321-0.411-0.578-0.732-0.771s-0.7-0.289-1.137-0.289c-0.489 0-0.9 0.167-1.234 0.501s-0.501 0.778-0.501 1.33c0 0.206 0.051 0.395 0.154 0.568 0.103 0.174 0.241 0.328 0.414 0.463 0.174 0.135 0.373 0.248 0.598 0.337 0.225 0.09 0.453 0.154 0.684 0.193z"/>
  <path d="m110.88 54.318c0.147 0.289 0.35 0.53 0.607 0.723 0.257 0.192 0.546 0.328 0.868 0.404 0.257 0.064 0.526 0.071 0.81 0.02v0.771c-0.36 0.039-0.72 0.013-1.08-0.077-0.411-0.116-0.781-0.302-1.108-0.559-0.328-0.257-0.591-0.578-0.79-0.963-0.199-0.386-0.299-0.842-0.299-1.369v-5.975h-0.771v-0.771h0.771v-3.854h0.771v3.854h1.735v0.771h-1.735v5.975c0 0.412 0.074 0.761 0.222 1.05z"/>
  <path d="m120.39 46.522v6.862c0 0.308 3e-3 0.585 0.01 0.829 6e-3 0.244 0.035 0.453 0.086 0.626s0.128 0.309 0.231 0.405 0.25 0.145 0.443 0.145v0.771c-0.412 0-0.72-0.093-0.925-0.279-0.206-0.187-0.354-0.44-0.443-0.762-0.27 0.347-0.604 0.624-1.002 0.829-0.398 0.206-0.829 0.308-1.292 0.308-0.411 0-0.793-0.074-1.147-0.222-0.354-0.147-0.659-0.353-0.916-0.617-0.257-0.263-0.459-0.578-0.607-0.944s-0.222-0.768-0.222-1.205v-6.746h0.771v6.746c0 0.694 0.189 1.237 0.568 1.629s0.896 0.587 1.552 0.587c0.578 0 1.07-0.186 1.475-0.559s0.62-0.893 0.646-1.562v-6.842h0.771z"/>
  <path d="m126.66 47.698c-0.18-0.128-0.385-0.228-0.617-0.299-0.231-0.07-0.476-0.106-0.732-0.106-0.617 0-1.125 0.193-1.522 0.578-0.398 0.386-0.598 0.932-0.598 1.639v3.758c0 0.694 0.189 1.237 0.569 1.629 0.379 0.392 0.896 0.587 1.551 0.587 0.578 0 1.07-0.186 1.475-0.559s0.62-0.893 0.646-1.562v-10.697h0.771v10.504c0 0.334 3e-3 0.636 0.01 0.906 6e-3 0.27 0.032 0.501 0.077 0.694s0.119 0.344 0.222 0.453 0.257 0.164 0.462 0.164v0.771c-0.411 0-0.72-0.093-0.925-0.279-0.206-0.187-0.354-0.44-0.443-0.762-0.27 0.347-0.604 0.624-1.002 0.829-0.398 0.206-0.829 0.308-1.292 0.308-0.411 0-0.793-0.074-1.146-0.222-0.354-0.147-0.659-0.353-0.916-0.617-0.257-0.263-0.46-0.578-0.607-0.944-0.148-0.366-0.222-0.768-0.222-1.205v-3.758c0-0.45 0.077-0.858 0.231-1.224s0.363-0.681 0.626-0.944 0.568-0.466 0.916-0.607c0.347-0.142 0.719-0.212 1.118-0.212 0.488 0 0.938 0.109 1.349 0.328v0.848z"/>
  <path d="m130.9 44.306c0-0.141 0.045-0.257 0.135-0.347 0.09-0.089 0.205-0.135 0.347-0.135s0.257 0.045 0.347 0.135 0.135 0.206 0.135 0.347-0.045 0.257-0.135 0.347-0.206 0.135-0.347 0.135-0.257-0.045-0.347-0.135c-0.09-0.089-0.135-0.205-0.135-0.347zm0.097 11.854v-9.637h0.771v9.637z"/>
  <path d="m134.94 46.522v11.854c0 0.463-0.077 0.868-0.231 1.214-0.154 0.347-0.363 0.652-0.626 0.916-0.264 0.263-0.569 0.472-0.916 0.626s-0.72 0.231-1.118 0.231v-0.771c0.617 0 1.125-0.199 1.523-0.598 0.398-0.398 0.597-0.938 0.597-1.619v-11.854h0.771zm-0.867-2.216c0-0.141 0.045-0.257 0.135-0.347 0.09-0.089 0.206-0.135 0.347-0.135s0.257 0.045 0.347 0.135 0.135 0.206 0.135 0.347-0.045 0.257-0.135 0.347-0.206 0.135-0.347 0.135-0.257-0.045-0.347-0.135c-0.09-0.089-0.135-0.205-0.135-0.347z"/>
  <path d="m141.24 51.745c-0.18-0.128-0.385-0.228-0.617-0.299s-0.476-0.106-0.732-0.106c-0.617 0-1.125 0.177-1.523 0.53-0.398 0.354-0.597 0.819-0.597 1.397 0 0.694 0.199 1.237 0.597 1.629s0.906 0.587 1.523 0.587c0.655 0 1.172-0.195 1.551-0.587s0.569-0.935 0.569-1.629v-3.855c0-0.707-0.19-1.252-0.569-1.638-0.379-0.385-0.896-0.578-1.551-0.578-0.732 0-1.324 0.283-1.773 0.848l-0.617-0.366c0.231-0.386 0.569-0.69 1.012-0.916 0.443-0.225 0.902-0.337 1.378-0.337 0.411 0 0.793 0.071 1.147 0.212 0.353 0.142 0.658 0.344 0.916 0.607 0.257 0.263 0.459 0.578 0.607 0.944 0.147 0.366 0.222 0.774 0.222 1.224v3.855c0 0.321 3e-3 0.61 0.01 0.867 6e-3 0.257 0.032 0.479 0.077 0.665 0.045 0.187 0.122 0.331 0.231 0.434s0.26 0.154 0.453 0.154v0.771c-0.412 0-0.72-0.093-0.925-0.279-0.206-0.187-0.354-0.434-0.443-0.742-0.257 0.334-0.585 0.604-0.983 0.81s-0.835 0.308-1.311 0.308c-0.398 0-0.771-0.074-1.118-0.222-0.347-0.147-0.652-0.353-0.916-0.617-0.263-0.263-0.472-0.578-0.626-0.944s-0.231-0.768-0.231-1.205c0-0.373 0.077-0.723 0.231-1.05 0.154-0.328 0.363-0.614 0.626-0.858s0.569-0.437 0.916-0.578 0.72-0.212 1.118-0.212c0.488 0 0.938 0.109 1.349 0.328v0.848z"/>
 </g>
</svg>
