<svg data-name="Layer 2" version="1.1" viewBox="0 0 137.45 145.37" xmlns="http://www.w3.org/2000/svg">
 <g fill="#FFFFFF">
  <g>
   <path d="m61.378 65.095c-1.6747 0.62867-3.4103 0.62929-5.209 2e-3 -0.16712 0.88235-0.50509 1.7456-0.45313 2.584 0.104 1.66-0.4348 3.0829-1.2168 4.4629-0.517 0.911-1.018 1.8404-1.623 2.6914-1.9118 2.688-3.63 5.483-5.2773 8.3184 0.2797 0.49932 0.57564 0.96836 0.87305 1.4355 1.0766-1.8649 2.2089-3.701 3.4727-5.4668 2.697-3.768 4.8375-7.9282 8.0625-11.326 0.685-0.722 1.1751-1.5842 1.3711-2.7012z"/>
   <path d="m63.786 66.108c0.343 0.271 0.769 0.523 1.086 0.873 1.682 1.858 2.752 4.044 3.483 6.435 0.403 1.317 0.764 2.735 2.394 3.478 0.965-2.312-0.922-4.144-0.791-6.477 2.622 1.859 4.376 4.029 4.691 7.208 0.177 1.781-0.359 3.394-1.038 4.975-0.705 1.64-1.465 3.256-2.224 4.871-0.08 0.17-0.321 0.264-0.643 0.513-0.45-2.953-2.325-4.814-4.371-6.586-1.131-0.979-2.215-2.034-3.188-3.169-1.194-1.392-1.942-2.976-1.321-4.905 0.159-0.493 0.187-1.026 0.324-1.527 0.506-1.844 1.033-3.683 1.599-5.687z"/>
   <path d="m53.181 55.927c-0.516-0.697-0.885-1.049-1.077-1.48-0.803-1.799-1.94-3.32-3.344-4.711-2.195-2.174-3.621-4.783-3.41-7.982 0.077-1.161 0.49-2.311 0.839-3.439 0.262-0.849 0.665-1.655 1.008-2.479 0.824-1.984 1.798-3.943 0.841-6.141 0.272-0.088 0.472-0.199 0.509-0.158 1.209 1.301 2.553 2.511 3.564 3.954 1.752 2.501 2.098 5.349 1.547 8.347-0.375 2.038-1.288 3.987-1.083 6.121 0.07 0.73 0.206 1.458 0.363 2.176 0.383 1.749 0.829 3.489 0.243 5.792z"/>
   <path d="m78.606 67.406c2.032-0.404 4.079-0.747 6.091-1.232 1.699-0.409 3.237-0.084 4.749 0.655 2.494 1.22 6.131 4.263 8.183 6.947-1.225-0.202-2.217-0.383-3.214-0.527-2.554-0.368-5.027 0.206-7.534 0.574-1.905 0.28-3.865 0.327-5.791 0.25-0.917-0.037-1.906-0.457-2.699-0.961-1.985-1.263-3.876-2.673-6.067-4.208 2.355-0.196 4.538-0.251 6.363-1.562l-0.082 0.065z"/>
   <path d="m47.589 57.212c-1.596 0.227-3.077-1.357-4.471 0.156 0.35 1.02 1.312 1.013 2.012 1.31 0.738 0.313 1.574 0.45 2.38 0.536 3.68 0.395 6.736 2.21 9.718 4.205 0.102 0.068 0.127 0.251 0.289 0.594-0.84-0.088-1.576-0.144-2.306-0.245-2.446-0.336-4.678 0.706-7.014 1.078-2.249 0.358-4.293-0.037-5.939-1.692-0.891-0.896-1.659-1.915-2.488-2.874l-4.67-5.398c1.709-0.549 3.393-1.118 5.094-1.629 2.823-0.848 6.251 0.95 7.394 3.958z"/>
   <path d="m60.694 37.696c0.269 1.678 0.963 2.879 1.987 3.93 1.476 1.516 2.089 3.473 2.349 5.448 0.191 1.455-0.5 2.895-1.297 4.171-0.672 1.076-1.457 2.086-2.067 3.195-0.674 1.226-1.205 2.531-1.895 4.007-0.315-0.386-0.845-0.736-0.856-1.103-0.034-1.154-0.661-1.936-1.306-2.776-0.632-0.825-1.211-1.703-1.712-2.614-1.042-1.893-1.093-3.933-0.12-5.791 1.513-2.888 3.265-5.651 4.916-8.467z"/>
   <path d="m35.992 33.276c1.86 1.649 3.748 3.189 5.477 4.892 2.106 2.075 2.845 4.839 3.424 7.637 0.196 0.947 0.218 1.948 0.54 2.845 0.372 1.032 0.88 2.055 1.523 2.941 1.067 1.473 2.025 2.973 2.35 4.785 0.052 0.289-0.204 0.632-0.317 0.95-0.269-0.19-0.738-0.347-0.775-0.575-0.321-1.958-1.764-2.861-3.318-3.664-1.262-0.651-2.556-1.238-3.814-1.896-2.497-1.305-4.17-3.143-3.877-6.206 0.029-0.298-0.023-0.604 0.014-0.9 0.428-3.483-0.081-6.85-1.217-10.146-0.065-0.188-8e-3 -0.417-8e-3 -0.664z"/>
   <path d="m65.252 63.045c0.983-1.624 1.837-2.966 2.617-4.35 0.443-0.787 0.886-1.856 0.08-2.453-0.783-0.58-1.741 0.102-2.399 0.709-0.532 0.491-0.945 1.14-1.311 1.776-0.513 0.893-0.932 1.84-1.43 2.842-0.272-0.231-0.537-0.343-0.561-0.493-0.375-2.361-0.642-4.688 0.634-6.935 1.239-2.182 3.184-3.282 5.468-3.912 1.069-0.295 2.223-0.298 3.274-0.634 1.389-0.444 2.716-1.085 4.011-1.617-0.328 2.35-0.57 4.735-1.011 7.082-0.563 3.003-1.907 5.462-5.1 6.449-1.384 0.428-2.73 0.977-4.272 1.537z"/>
   <path d="m98.169 82.439c-1.448-0.24-2.893-0.499-4.345-0.713-0.869-0.128-1.784-0.386-2.615-0.236-2.294 0.415-4.579 0.429-6.9 0.406-4.239-0.042-6.691-2.543-8.584-5.88-0.451-0.795-0.605-1.758-1.038-3.077 0.62 0.414 0.877 0.53 1.061 0.718 1.073 1.09 2.42 1.492 3.883 1.427 1.866-0.083 3.728-0.264 5.589-0.44 2.412-0.229 4.746-0.057 6.215 2.163 1.351 2.041 3.237 3.276 5.36 4.285 0.527 0.251 1.025 0.564 1.536 0.849z"/>
   <path d="m78.688 67.341c-2.26 0.179-4.432-0.214-6.617-0.796-2.049-0.546-4.173-0.81-6.589-1.259 0.657-0.36 1.054-0.664 1.502-0.809 1.956-0.63 3.648-1.699 5.153-3.067 2.354-2.139 5.012-2.771 8.072-1.847 0.702 0.212 1.485 0.139 2.223 0.248 0.706 0.104 1.403 0.275 2.299 0.456-1.843 2.815-2.944 5.857-6.126 7.138l0.082-0.065z"/>
   <path d="m76.871 52.209c1.264-1.665 0.861-3.487 0.836-5.246q-2.363-0.58-7.043 1.449c-0.184-2.235 1.601-3.103 2.82-4.444-0.617 0.127-1.188 0.317-1.767 0.348-1.142 0.061-1.922 0.552-2.565 1.52-0.74 1.115-1.653 2.118-2.533 3.132-0.131 0.151-0.516 0.169-0.746 0.109-0.116-0.03-0.251-0.401-0.207-0.573 0.521-2.009 0.972-4.045 1.647-6.004 0.763-2.215 1.539-2.732 3.815-2.647 1.854 0.07 3.701 0.352 5.807 0.566l-2.628 3.364c2.303-0.013 4.423-0.303 6.441-1.968 0.309 2.516 0.702 4.701 0.1 6.847-0.533 1.904-2.022 3-3.979 3.546z"/>
   <path d="m36.282 24.105c0.302 0 0.674-0.118 0.862 0.018 1.739 1.254 3.831 1.559 5.791 2.212 2.433 0.811 3.4 2.644 3.75 5.042-2.753-0.312-3.309 0.157-3.582 2.864-0.08 0.796-0.21 1.588-0.331 2.49-2.325-1.706-4.092-4.314-4.722-6.66-0.517-1.925-1.129-3.824-1.768-5.966z"/>
   <path d="m81.91 47.358c1.779 0.05 1.839 1.519 2.084 2.541 0.271 1.131 0.217 2.395 0.047 3.564-0.294 2.029-2.129 3.491-4.575 3.983-1.433 0.289-2.844 0.691-4.326 1.057-0.353-0.859 0.214-1.58 0.844-2.211 1.424-1.426 2.816-2.902 4.378-4.164 1.101-0.889 1.729-1.776 1.468-3.221-0.088-0.488 0.045-1.016 0.079-1.55z"/>
   <path d="m83.244 65.197c0.013-1.06 0.604-1.607 1.373-1.938 1.349-0.581 2.697-1.212 4.107-1.594 2.158-0.585 4.769 1.131 5.297 3.32 0.327 1.356-0.072 1.824-1.408 1.514-1.145-0.266-2.304-0.555-3.381-1.012-1.62-0.688-3.199-1.1-4.914-0.377-0.304 0.128-0.691 0.062-1.075 0.087z"/>
   <path d="m81.491 58.667c0.895-1.532 2.254-1.992 3.595-2.364 1.686-0.469 3.406-0.461 5.003 0.379 1.574 0.828 1.634 1.933 0.228 3.078-1.661 1.352-2.219 1.417-3.892 0.079-0.933-0.746-1.872-1.152-3.069-1.043-0.555 0.051-1.126-0.071-1.865-0.129z"/>
   <path d="m55.674 43.234c-0.256-0.425-0.69-0.832-0.736-1.279-0.198-1.912-0.536-3.834 0.688-5.622 0.748-1.092 1.265-2.342 1.991-3.721 0.73 1.242 1.383 2.271 1.936 3.351 0.13 0.255 0.018 0.728-0.138 1.017-0.387 0.715-0.843 1.396-1.308 2.065-0.883 1.272-2.096 2.368-1.992 4.151l-0.442 0.037z"/>
   <path d="m70.052 37.291c-0.614 0.497-1.138 1.011-1.745 1.391-1.042 0.653-1.932 1.377-2.279 2.641-0.081 0.296-0.493 0.5-0.753 0.746-0.273-0.301-0.693-0.56-0.792-0.91-0.4-1.412-1.088-2.828-0.181-4.315 0.558-0.915 1.464-1.465 2.226-0.939 0.932 0.644 1.899 0.762 2.93 0.883 0.175 0.021 0.325 0.266 0.594 0.502z"/>
  </g>
  <path d="m43.135 98.919c-1.27 0.762-2.873 1.143-4.809 1.143-0.508 0-1.246-0.082-2.214-0.246-0.968-0.164-1.669-0.246-2.103-0.246-1.006 0-1.805 0.297-2.396 0.889-0.591 0.592-0.889 1.392-0.889 2.396 0 0.096 0.026 0.241 0.079 0.437s0.079 0.341 0.079 0.437c0 0.169-0.074 0.254-0.222 0.254-0.371 0-0.556-0.508-0.556-1.523 0-1.375 0.486-2.476 1.46-3.301 0.921-0.783 2.079-1.175 3.476-1.175 0.529 0 1.381 0.101 2.555 0.302 1.175 0.201 2.068 0.302 2.683 0.302 1.725 0 3.147-0.402 4.269-1.206 0.042-0.032 0.105-0.074 0.19-0.127 0.105 0.031 0.159 0.09 0.159 0.174 0 0.054-0.228 0.408-0.683 1.063-0.529 0.752-0.81 1.153-0.841 1.206-0.995 1.619-2.169 4.068-3.523 7.348-1.661 4.031-3.121 6.999-4.38 8.903-2.37 3.576-4.894 5.364-7.57 5.364-1.016 0-1.894-0.296-2.635-0.889-0.804-0.646-1.206-1.466-1.206-2.46 0-0.55 0.164-1.019 0.492-1.404s0.762-0.579 1.302-0.579c0.91 0 1.364 0.402 1.364 1.206 0 0.889-0.598 1.344-1.793 1.364h-0.46c0.296 1.471 1.264 2.206 2.903 2.206 1.884 0 3.777-1.519 5.682-4.555 0.794-1.248 1.979-3.607 3.556-7.078 2.222-4.898 4.231-8.3 6.03-10.204z"/>
  <path d="m50.784 108.44c-2.138 3.861-3.206 6.3-3.206 7.315 0 0.667 0.28 1 0.841 1 0.466 0 0.804-0.206 1.016-0.619 0.212-0.412 0.328-0.619 0.35-0.619 0.105 0 0.158 0.059 0.158 0.175 0 0.413-0.153 0.754-0.46 1.023-0.307 0.271-0.672 0.405-1.095 0.405-0.106 0-0.376-0.037-0.81-0.111-0.656-0.127-1.232-0.158-1.729-0.095l-0.19-0.873c-0.984 0.719-1.915 1.079-2.794 1.079-0.867 0-1.555-0.26-2.062-0.778-0.508-0.518-0.762-1.211-0.762-2.078 0-1.577 0.827-2.974 2.483-4.19 1.655-1.216 3.621-1.825 5.896-1.825 0.941 0 1.73 0.063 2.365 0.191zm-1.587 0.254h-0.524c-2.073 0-3.798 0.521-5.174 1.562-1.375 1.042-2.062 2.277-2.062 3.706 0 1.523 0.777 2.285 2.333 2.285 0.719 0 1.454-0.286 2.206-0.857 0.645-2.253 1.719-4.485 3.222-6.696z"/>
  <path d="m62.417 108.51-3.237 6.475c-0.243 0.486-0.365 0.862-0.365 1.127 0 0.37 0.196 0.556 0.587 0.556 0.106 0 0.246-0.069 0.421-0.207 0.175-0.137 0.283-0.206 0.325-0.206 0.105 0 0.159 0.053 0.159 0.158 0 0.212-0.153 0.382-0.461 0.509-0.243 0.116-0.486 0.174-0.729 0.174-0.127 0-0.347-0.034-0.658-0.103-0.312-0.069-0.554-0.104-0.723-0.104-0.434 0-0.82 0.068-1.158 0.206 0.243-0.247 0.502-0.586 0.777-1.019-0.031-0.083-0.095-0.124-0.19-0.124 0.032 0-0.307 0.19-1.016 0.571s-1.359 0.571-1.952 0.571c-1.618 0-2.428-0.672-2.428-2.016 0-0.412 0.169-0.983 0.508-1.714l1.793-3.872c-0.994 0.232-1.545 0.35-1.65 0.35-0.116 0-0.175-0.053-0.175-0.159 0-0.084 0.074-0.147 0.223-0.19l3.771-0.982-2.564 5.236c-0.339 0.688-0.509 1.206-0.509 1.555 0 0.804 0.476 1.206 1.428 1.206 1.47 0 2.649-0.921 3.538-2.762l2.079-4.301c-0.645 0.159-0.978 0.238-0.999 0.238-0.158 0-0.237-0.053-0.237-0.158 0-0.106 0.101-0.186 0.301-0.238l3.143-0.777z"/>
  <path d="m73.288 97.935c0.158 0 0.349 0.054 0.571 0.159s0.333 0.228 0.333 0.365c0 0.095-0.053 0.153-0.159 0.174-0.528-0.18-0.819-0.27-0.872-0.27-0.551 0-1.376 1.228-2.477 3.682l-3.507 7.824c1.175-1.101 2.486-1.65 3.936-1.65 1.534 0 2.302 0.508 2.302 1.523 0 0.836-0.545 1.598-1.635 2.285-0.815 0.519-1.735 0.905-2.762 1.159 0.265 0.561 0.471 1.232 0.619 2.015 0.147 0.783 0.375 1.175 0.683 1.175 0.137 0 0.296-0.066 0.476-0.198s0.296-0.198 0.35-0.198c0.084 0 0.147 0.053 0.19 0.158 0 0.201-0.117 0.384-0.35 0.548s-0.455 0.246-0.666 0.246c-0.127 0-0.315-0.029-0.563-0.088-0.249-0.058-0.437-0.087-0.563-0.087-0.223 0-0.667 0.111-1.333 0.333 0.211-0.359 0.317-0.74 0.317-1.143 0-0.539-0.127-1.147-0.381-1.825-0.254-0.571-0.503-1.143-0.746-1.714 0.613 0.127 1.164 0.19 1.65 0.19 0.709 0 1.396-0.217 2.063-0.65 0.751-0.497 1.127-1.079 1.127-1.746 0-0.782-0.524-1.174-1.571-1.174-2.127 0-3.937 1.881-5.428 5.642-0.297 0.754-0.444 1.232-0.444 1.435 0 0.287 0.147 0.43 0.444 0.43-0.011 0 0.175-0.053 0.556-0.158 0.105 0.031 0.158 0.095 0.158 0.19 0 0.35-0.344 0.523-1.031 0.523-0.159 0-0.395-0.045-0.706-0.135-0.312-0.09-0.554-0.135-0.723-0.135-0.158 0-0.399 0.045-0.722 0.135s-0.568 0.135-0.738 0.135c-0.635 0-0.952-0.134-0.952-0.4 0-0.209 0.079-0.313 0.238-0.313 0.074 0 0.188 0.026 0.341 0.079 0.153 0.054 0.268 0.079 0.342 0.079 0.497 0 1.296-1.128 2.396-3.386l4.618-9.507c0.592-1.218 0.979-1.997 1.158-2.337 0.486-0.89 0.968-1.621 1.444-2.193 0.655-0.784 1.327-1.177 2.016-1.177z"/>
  <path d="m84.683 108.51-3.237 6.475c-0.243 0.486-0.365 0.862-0.365 1.127 0 0.37 0.196 0.556 0.587 0.556 0.106 0 0.246-0.069 0.421-0.207 0.175-0.137 0.283-0.206 0.325-0.206 0.105 0 0.159 0.053 0.159 0.158 0 0.212-0.153 0.382-0.461 0.509-0.243 0.116-0.486 0.174-0.729 0.174-0.127 0-0.347-0.034-0.658-0.103-0.312-0.069-0.554-0.104-0.723-0.104-0.434 0-0.82 0.068-1.158 0.206 0.243-0.247 0.502-0.586 0.777-1.019-0.031-0.083-0.095-0.124-0.19-0.124 0.032 0-0.307 0.19-1.016 0.571s-1.359 0.571-1.952 0.571c-1.618 0-2.428-0.672-2.428-2.016 0-0.412 0.169-0.983 0.508-1.714l1.793-3.872c-0.994 0.232-1.545 0.35-1.65 0.35-0.116 0-0.175-0.053-0.175-0.159 0-0.084 0.074-0.147 0.223-0.19l3.771-0.982-2.564 5.236c-0.339 0.688-0.509 1.206-0.509 1.555 0 0.804 0.476 1.206 1.428 1.206 1.47 0 2.649-0.921 3.538-2.762l2.079-4.301c-0.645 0.159-0.978 0.238-0.999 0.238-0.158 0-0.237-0.053-0.237-0.158 0-0.106 0.101-0.186 0.301-0.238l3.143-0.777z"/>
  <path d="m87.968 109.68c-0.117 0.021-0.397 0.116-0.842 0.286-0.381 0.138-0.629 0.206-0.745 0.206-0.148 0-0.223-0.068-0.223-0.206 0-0.096 0.463-0.305 1.389-0.627 0.926-0.323 1.732-0.622 2.42-0.896l-0.729 1.951c1.428-1.428 2.914-2.143 4.459-2.143 1.344 0 2.016 0.577 2.016 1.73v0.412c1.188-1.428 2.425-2.143 3.709-2.143 1.315 0 1.973 0.681 1.973 2.04 0 0.801-0.563 2.005-1.69 3.612s-1.689 2.4-1.689 2.379c0 0.127 0.058 0.189 0.174 0.189 0.519-0.264 0.873-0.396 1.063-0.396 0.096 0 0.23 0.011 0.404 0.032 0.175 0.021 0.31 0.031 0.405 0.031 0.338 0 0.656-0.084 0.952-0.254-0.074 0.392-0.333 0.698-0.777 0.921-0.381 0.19-0.794 0.285-1.238 0.285-0.148 0-0.37-0.034-0.666-0.103-0.297-0.069-0.519-0.104-0.667-0.104-0.074 0-0.455 0.068-1.143 0.206 2.232-2.761 3.349-4.856 3.349-6.284 0-1.037-0.477-1.556-1.429-1.556-0.656 0-1.307 0.295-1.952 0.886-0.55 0.495-0.983 1.085-1.301 1.77l-1.556 3.334c-0.19 0.411-0.285 0.7-0.285 0.869 0 0.326 0.237 0.49 0.714 0.49 0.212 0 0.667-0.133 1.365-0.397 0.084 0.043 0.127 0.101 0.127 0.175 0 0.232-0.223 0.434-0.667 0.604-0.359 0.137-0.683 0.206-0.968 0.206-0.19 0-0.471-0.043-0.842-0.127-0.37-0.085-0.65-0.127-0.841-0.127-0.18 0-0.452 0.026-0.817 0.079s-0.638 0.079-0.817 0.079c-0.751 0-1.127-0.125-1.127-0.376 0-0.141 0.063-0.211 0.191-0.211 0.084 0 0.208 0.016 0.372 0.048 0.164 0.031 0.288 0.048 0.373 0.048 0.678 0 1.265-0.577 1.762-1.73l1.683-3.888c0.18-0.413 0.27-0.73 0.27-0.952 0-0.688-0.412-1.032-1.238-1.032-2.01 0-3.776 1.614-5.3 4.841-0.54 1.153-0.81 1.899-0.81 2.237 0 0.35 0.175 0.524 0.523 0.524 0.159 0 0.471-0.133 0.937-0.397 0.105 0.032 0.158 0.101 0.158 0.206 0 0.17-0.217 0.334-0.65 0.492-0.37 0.127-0.672 0.19-0.904 0.19-0.181 0-0.45-0.034-0.81-0.103-0.359-0.069-0.629-0.104-0.81-0.104-0.2 0-0.474 0.066-0.817 0.198s-0.563 0.198-0.658 0.198c-0.127 0-0.19-0.074-0.19-0.222 0 0.01 0.296-0.133 0.889-0.429s1.264-1.407 2.016-3.333c0.603-1.565 1.105-2.771 1.508-3.618z"/>
  <path d="m113.39 108.44c-2.138 3.861-3.206 6.3-3.206 7.315 0 0.667 0.28 1 0.841 1 0.466 0 0.804-0.206 1.016-0.619 0.212-0.412 0.328-0.619 0.35-0.619 0.105 0 0.158 0.059 0.158 0.175 0 0.413-0.153 0.754-0.46 1.023-0.307 0.271-0.672 0.405-1.095 0.405-0.106 0-0.376-0.037-0.81-0.111-0.656-0.127-1.232-0.158-1.729-0.095l-0.19-0.873c-0.984 0.719-1.915 1.079-2.794 1.079-0.867 0-1.555-0.26-2.062-0.778-0.508-0.518-0.762-1.211-0.762-2.078 0-1.577 0.827-2.974 2.483-4.19 1.655-1.216 3.621-1.825 5.896-1.825 0.941 0 1.73 0.063 2.365 0.191zm-1.587 0.254h-0.524c-2.073 0-3.798 0.521-5.174 1.562-1.375 1.042-2.062 2.277-2.062 3.706 0 1.523 0.777 2.285 2.333 2.285 0.719 0 1.454-0.286 2.206-0.857 0.645-2.253 1.719-4.485 3.222-6.696z"/>
  <path d="m83.588 95.263c0.296 0.04 0.574 0.118 0.836 0.236 0.261 0.119 0.487 0.267 0.68 0.444 0.192 0.177 0.343 0.381 0.451 0.613 0.108 0.231 0.163 0.485 0.163 0.762 0 0.335-0.06 0.643-0.178 0.924s-0.278 0.522-0.48 0.725-0.437 0.36-0.702 0.474c-0.267 0.113-0.553 0.17-0.858 0.17-0.315 0-0.608-0.06-0.88-0.178-0.271-0.118-0.505-0.278-0.702-0.48s-0.353-0.437-0.466-0.702c-0.113-0.267-0.17-0.553-0.17-0.858h0.592c0 0.474 0.145 0.863 0.436 1.169s0.688 0.458 1.19 0.458c0.474 0 0.863-0.15 1.169-0.451 0.305-0.301 0.458-0.717 0.458-1.249 0-0.424-0.153-0.757-0.458-0.998-0.306-0.242-0.695-0.401-1.169-0.48-0.266-0.04-0.515-0.111-0.746-0.215-0.232-0.104-0.435-0.231-0.606-0.385-0.173-0.153-0.311-0.328-0.414-0.525-0.104-0.197-0.155-0.414-0.155-0.65 0-0.296 0.049-0.567 0.147-0.813 0.099-0.246 0.237-0.456 0.414-0.628 0.178-0.172 0.382-0.308 0.614-0.407 0.231-0.099 0.48-0.148 0.746-0.148 0.414 0 0.789 0.101 1.124 0.303s0.597 0.466 0.784 0.791l-0.474 0.311c-0.128-0.246-0.315-0.443-0.562-0.591s-0.538-0.222-0.873-0.222c-0.374 0-0.689 0.128-0.946 0.384-0.256 0.256-0.384 0.597-0.384 1.021 0 0.158 0.039 0.303 0.118 0.436 0.078 0.133 0.185 0.251 0.317 0.355 0.134 0.104 0.286 0.19 0.459 0.259 0.172 0.069 0.347 0.118 0.524 0.148z"/>
  <path d="m88.032 98.124c0.113 0.222 0.269 0.406 0.466 0.555 0.197 0.147 0.419 0.251 0.665 0.311 0.197 0.049 0.404 0.054 0.621 0.015v0.592c-0.276 0.029-0.552 0.01-0.828-0.06-0.315-0.089-0.599-0.231-0.85-0.429-0.252-0.197-0.454-0.443-0.606-0.739-0.153-0.296-0.229-0.646-0.229-1.05v-4.584h-0.592v-0.591h0.592v-2.958h0.592v2.958h1.33v0.591h-1.33v4.584c0 0.315 0.057 0.584 0.17 0.806z"/>
  <path d="m95.33 92.143v5.264c0 0.237 2e-3 0.449 7e-3 0.637s0.027 0.347 0.066 0.48 0.099 0.236 0.178 0.311c0.079 0.073 0.192 0.11 0.34 0.11v0.592c-0.315 0-0.552-0.071-0.71-0.215-0.157-0.143-0.271-0.337-0.34-0.584-0.207 0.267-0.463 0.479-0.769 0.636-0.306 0.158-0.636 0.237-0.991 0.237-0.315 0-0.608-0.057-0.88-0.17s-0.505-0.271-0.702-0.474-0.353-0.443-0.466-0.725-0.17-0.589-0.17-0.924v-5.176h0.592v5.176c0 0.532 0.145 0.948 0.436 1.249s0.688 0.451 1.19 0.451c0.443 0 0.821-0.143 1.132-0.429s0.475-0.686 0.495-1.198v-5.249h0.592z"/>
  <path d="m100.14 93.045c-0.139-0.099-0.296-0.175-0.474-0.229s-0.364-0.082-0.562-0.082c-0.474 0-0.863 0.148-1.168 0.444-0.307 0.295-0.459 0.715-0.459 1.257v2.884c0 0.532 0.146 0.948 0.437 1.249 0.29 0.301 0.688 0.451 1.19 0.451 0.443 0 0.82-0.143 1.131-0.429s0.476-0.686 0.495-1.198v-8.207h0.592v8.059c0 0.257 2e-3 0.488 8e-3 0.695 5e-3 0.207 0.024 0.384 0.059 0.532 0.035 0.147 0.091 0.264 0.17 0.348 0.079 0.083 0.197 0.125 0.355 0.125v0.592c-0.315 0-0.553-0.071-0.71-0.215-0.158-0.143-0.271-0.337-0.34-0.584-0.207 0.267-0.464 0.479-0.77 0.636-0.306 0.158-0.636 0.237-0.99 0.237-0.315 0-0.609-0.057-0.88-0.17s-0.506-0.271-0.702-0.474c-0.198-0.202-0.354-0.443-0.466-0.725-0.114-0.281-0.171-0.589-0.171-0.924v-2.884c0-0.345 0.06-0.658 0.178-0.939s0.278-0.522 0.48-0.725 0.437-0.357 0.703-0.466c0.266-0.108 0.552-0.163 0.857-0.163 0.374 0 0.72 0.083 1.035 0.251v0.651z"/>
  <path d="m103.39 90.442c0-0.108 0.034-0.197 0.104-0.266 0.068-0.069 0.157-0.104 0.266-0.104s0.197 0.035 0.267 0.104c0.068 0.069 0.104 0.158 0.104 0.266s-0.035 0.197-0.104 0.266-0.158 0.104-0.267 0.104-0.197-0.035-0.266-0.104-0.104-0.158-0.104-0.266zm0.073 9.094v-7.394h0.592v7.394z"/>
  <path d="m106.49 92.143v9.094c0 0.355-0.059 0.666-0.177 0.932-0.119 0.267-0.279 0.501-0.481 0.703-0.202 0.201-0.436 0.362-0.702 0.48s-0.552 0.177-0.857 0.177v-0.591c0.473 0 0.862-0.153 1.168-0.459s0.459-0.72 0.459-1.242v-9.094h0.591zm-0.665-1.701c0-0.108 0.034-0.197 0.104-0.266 0.068-0.069 0.157-0.104 0.266-0.104s0.197 0.035 0.267 0.104c0.068 0.069 0.104 0.158 0.104 0.266s-0.035 0.197-0.104 0.266-0.158 0.104-0.267 0.104-0.197-0.035-0.266-0.104-0.104-0.158-0.104-0.266z"/>
  <path d="m111.33 96.15c-0.138-0.1-0.296-0.176-0.473-0.229-0.178-0.054-0.365-0.081-0.562-0.081-0.473 0-0.862 0.135-1.168 0.406s-0.458 0.628-0.458 1.072c0 0.532 0.152 0.948 0.458 1.249s0.695 0.451 1.168 0.451c0.503 0 0.899-0.15 1.19-0.451s0.437-0.717 0.437-1.249v-2.958c0-0.542-0.146-0.961-0.437-1.257s-0.688-0.443-1.19-0.443c-0.562 0-1.016 0.217-1.36 0.65l-0.473-0.281c0.177-0.296 0.436-0.53 0.776-0.703 0.34-0.172 0.692-0.259 1.057-0.259 0.315 0 0.609 0.054 0.88 0.163s0.506 0.264 0.703 0.466c0.196 0.202 0.352 0.444 0.466 0.725 0.112 0.281 0.17 0.594 0.17 0.939v2.958c0 0.246 2e-3 0.468 7e-3 0.665s0.024 0.367 0.06 0.51c0.034 0.144 0.094 0.254 0.178 0.333 0.083 0.079 0.199 0.118 0.347 0.118v0.592c-0.315 0-0.552-0.071-0.709-0.215-0.158-0.143-0.271-0.332-0.341-0.569-0.197 0.257-0.448 0.464-0.754 0.621-0.306 0.158-0.641 0.237-1.006 0.237-0.306 0-0.591-0.057-0.857-0.17s-0.5-0.271-0.702-0.474-0.362-0.443-0.48-0.725-0.178-0.589-0.178-0.924c0-0.286 0.06-0.555 0.178-0.807 0.118-0.251 0.278-0.471 0.48-0.657 0.202-0.188 0.437-0.335 0.702-0.444 0.267-0.108 0.552-0.163 0.857-0.163 0.375 0 0.72 0.084 1.035 0.251v0.651z"/>
 </g>
</svg>
