<svg width="134" height="54" viewBox="0 0 134 54" fill="none" xmlns="http://www.w3.org/2000/svg">
<path d="M104.253 33.0313C102.905 33.5377 101.508 33.5381 100.06 33.0325C99.9256 33.7429 99.6535 34.4374 99.6961 35.112C99.7801 36.4484 99.3466 37.5942 98.7167 38.7052C98.3011 39.4383 97.8977 40.1849 97.4104 40.8703C94.7071 44.6711 92.4098 48.6986 90.2819 52.819C90.608 53.0725 90.9479 53.3133 91.3023 53.539C92.8825 50.3594 94.5751 47.2374 96.6601 44.3238C98.8309 41.2903 100.554 37.9412 103.149 35.2061C103.701 34.6249 104.095 33.9311 104.253 33.0313Z" fill="white"/>
<path d="M106.191 33.8466C106.467 34.0646 106.81 34.2672 107.065 34.5494C108.419 36.0452 109.28 37.8046 109.869 39.7289C110.193 40.7887 110.483 41.9305 111.795 42.5283C112.572 40.6676 111.053 39.1929 111.159 37.3149C113.269 38.8118 114.681 40.5583 114.935 43.1169C115.078 44.5509 114.646 45.8484 114.099 47.1212C113.532 48.4409 112.92 49.7415 112.309 51.0414C112.244 51.1779 112.05 51.2539 111.791 51.4546C111.429 49.0776 109.92 47.5794 108.272 46.1528C107.362 45.3648 106.49 44.515 105.706 43.6023C104.745 42.482 104.143 41.2061 104.643 39.6542C104.771 39.2577 104.793 38.8279 104.904 38.4246C105.312 36.94 105.736 35.4603 106.191 33.8466Z" fill="white"/>
<path d="M97.6577 25.6526C97.2421 25.0913 96.9457 24.8084 96.7907 24.4613C96.1447 23.0132 95.2288 21.7891 94.0987 20.6695C92.3319 18.9193 91.1838 16.8196 91.3536 14.2444C91.4154 13.31 91.7483 12.3837 92.0293 11.4758C92.2405 10.7922 92.5647 10.1444 92.8401 9.48049C93.5034 7.88409 94.2871 6.30684 93.517 4.53752C93.7362 4.4665 93.8968 4.37757 93.927 4.4103C94.9003 5.45769 95.9823 6.43158 96.7956 7.59322C98.2055 9.60647 98.484 11.8989 98.0406 14.3117C97.7392 15.9526 97.0037 17.5205 97.1686 19.2392C97.2254 19.8271 97.3347 20.4132 97.4607 20.9906C97.7689 22.3981 98.1283 23.7987 97.6565 25.6526H97.6577Z" fill="white"/>
<path d="M118.122 34.892C119.757 34.5665 121.405 34.2905 123.025 33.9002C124.392 33.571 125.63 33.8323 126.847 34.4276C128.854 35.4095 131.782 37.8594 133.434 40.019C132.447 39.856 131.649 39.7108 130.847 39.5947C128.791 39.2983 126.8 39.7602 124.783 40.0567C123.249 40.2815 121.672 40.3204 120.121 40.258C119.383 40.2284 118.587 39.8899 117.95 39.4842C116.352 38.4677 114.829 37.332 113.066 36.0969C114.961 35.9388 116.719 35.8949 118.188 34.8395L118.122 34.892Z" fill="white"/>
<path d="M93.1541 26.686C91.8695 26.8688 90.6776 25.5941 89.5555 26.8113C89.8377 27.6327 90.6115 27.6271 91.1748 27.8661C91.7689 28.1181 92.4414 28.228 93.0911 28.2978C96.0535 28.6152 98.5133 30.077 100.913 31.6827C100.995 31.7376 101.016 31.8846 101.146 32.1607C100.47 32.0903 99.8775 32.0446 99.2895 31.9637C97.3201 31.6932 95.5236 32.5318 93.6438 32.8313C91.8331 33.1197 90.1879 32.8017 88.8638 31.4696C88.1462 30.7483 87.5281 29.9282 86.8617 29.1562L83.1032 24.8117C84.4785 24.3701 85.8341 23.9119 87.2032 23.5006C89.4758 22.8182 92.2345 24.2651 93.1547 26.6866L93.1541 26.686Z" fill="white"/>
<path d="M103.702 10.9771C103.918 12.3283 104.478 13.2942 105.302 14.1403C106.49 15.36 106.983 16.9354 107.192 18.525C107.346 19.6959 106.789 20.8556 106.148 21.8827C105.607 22.7485 104.975 23.5618 104.485 24.4542C103.942 25.4411 103.514 26.4915 102.96 27.6791C102.706 27.3685 102.279 27.0862 102.271 26.7917C102.243 25.8628 101.738 25.2329 101.219 24.5573C100.711 23.8934 100.245 23.1863 99.8417 22.4533C99.0025 20.9291 98.9623 19.287 99.7454 17.7919C100.963 15.4668 102.374 13.2436 103.702 10.9771Z" fill="white"/>
<path d="M83.817 7.41851C85.314 8.74627 86.8344 9.98572 88.2252 11.3567C89.9204 13.0272 90.5157 15.2523 90.9808 17.5039C91.1382 18.266 91.1561 19.0719 91.4155 19.7939C91.7144 20.6251 92.1239 21.4477 92.6414 22.1616C93.5004 23.3467 94.2718 24.5547 94.533 26.0133C94.5744 26.2455 94.3687 26.5222 94.2773 26.7785C94.0612 26.6253 93.6838 26.4994 93.6536 26.3153C93.3954 24.7393 92.2338 24.0118 90.9826 23.3658C89.9673 22.8415 88.9249 22.3691 87.9127 21.8398C85.9032 20.7894 84.5556 19.3103 84.7922 16.8444C84.815 16.6048 84.7736 16.3577 84.8033 16.1194C85.1473 13.3156 84.7378 10.6051 83.8238 7.95271C83.7719 7.8014 83.817 7.61737 83.817 7.41851Z" fill="white"/>
<path d="M107.371 31.381C108.162 30.0743 108.85 28.9941 109.477 27.8794C109.834 27.2458 110.19 26.3856 109.542 25.9051C108.912 25.4382 108.14 25.9872 107.611 26.4757C107.182 26.871 106.85 27.3934 106.556 27.9054C106.144 28.6242 105.806 29.3863 105.405 30.1928C105.186 30.007 104.972 29.9168 104.953 29.7957C104.651 27.8955 104.437 26.0224 105.464 24.2136C106.46 22.4572 108.027 21.5717 109.865 21.0646C110.725 20.8275 111.654 20.8244 112.501 20.5539C113.619 20.1963 114.687 19.6807 115.729 19.2521C115.465 21.1437 115.27 23.0631 114.916 24.9528C114.462 27.37 113.38 29.3499 110.811 30.144C109.697 30.488 108.613 30.9308 107.371 31.381Z" fill="white"/>
<path d="M133.87 46.9928C132.704 46.7995 131.541 46.5907 130.372 46.4184C129.673 46.3153 128.937 46.1078 128.267 46.2288C126.42 46.5629 124.582 46.5741 122.713 46.5555C119.301 46.5216 117.328 44.5083 115.804 41.8225C115.44 41.1827 115.317 40.4071 114.969 39.3455C115.468 39.679 115.674 39.7722 115.823 39.9229C116.687 40.8005 117.77 41.1241 118.948 41.0709C120.45 41.0036 121.949 40.8585 123.446 40.7165C125.388 40.5324 127.266 40.6708 128.449 42.4574C129.536 44.1007 131.055 45.0944 132.764 45.9071C133.188 46.109 133.588 46.3616 134 46.5907L133.87 46.9928Z" fill="white"/>
<path d="M118.185 34.8389C116.365 34.9834 114.617 34.6666 112.858 34.1985C111.209 33.7594 109.499 33.5464 107.555 33.1851C108.084 32.8948 108.403 32.6503 108.764 32.5342C110.339 32.0272 111.7 31.1663 112.912 30.0652C114.807 28.3434 116.947 27.8345 119.409 28.5781C119.974 28.7485 120.605 28.6905 121.199 28.7782C121.768 28.8622 122.329 28.9999 123.049 29.1456C121.566 31.4115 120.679 33.8601 118.119 34.8914L118.185 34.8389Z" fill="white"/>
<path d="M116.722 22.6592C117.739 21.3191 117.414 19.8524 117.395 18.4363C116.127 18.1251 114.237 18.5137 111.725 19.6023C111.578 17.8033 113.014 17.1048 113.996 16.0253C113.499 16.1279 113.04 16.281 112.573 16.3057C111.654 16.3551 111.026 16.7504 110.509 17.5297C109.913 18.427 109.179 19.2348 108.47 20.0512C108.364 20.1729 108.055 20.1871 107.869 20.1389C107.775 20.1142 107.667 19.8166 107.703 19.6776C108.122 18.0602 108.485 16.4212 109.029 14.8452C109.643 13.0629 110.267 12.646 112.1 12.7146C113.592 12.7708 115.079 12.9974 116.774 13.1697L114.659 15.8777C116.513 15.8672 118.219 15.6338 119.843 14.2931C120.092 16.3181 120.408 18.0769 119.924 19.8042C119.495 21.337 118.296 22.2189 116.722 22.6586V22.6592Z" fill="white"/>
<path d="M84.0518 0.0379246C84.2951 0.0379246 84.594 -0.0565625 84.7459 0.0527462C86.1453 1.06184 87.83 1.30825 89.4073 1.83318C91.3656 2.48533 92.1437 3.9613 92.4259 5.89119C90.2101 5.63984 89.7624 6.01779 89.5432 8.19655C89.4789 8.83758 89.3739 9.47491 89.2764 10.2005C87.4051 8.8277 85.9823 6.7286 85.4753 4.84009C85.059 3.29063 84.5662 1.76154 84.0518 0.0379246Z" fill="white"/>
<path d="M120.778 18.7545C122.21 18.7953 122.258 19.9773 122.455 20.7999C122.673 21.7101 122.63 22.7279 122.494 23.6684C122.257 25.3019 120.78 26.4784 118.811 26.8748C117.658 27.107 116.522 27.4313 115.329 27.7258C115.045 27.0348 115.502 26.4543 116.009 25.946C117.155 24.798 118.276 23.6098 119.533 22.5945C120.419 21.8787 120.924 21.1648 120.714 20.0014C120.643 19.6086 120.751 19.1831 120.778 18.7539V18.7545Z" fill="white"/>
<path d="M121.853 33.1138C121.864 32.2603 122.339 31.8206 122.959 31.5538C124.044 31.0857 125.13 30.5787 126.265 30.2705C128.001 29.7993 130.103 31.1808 130.528 32.9427C130.792 34.0345 130.47 34.4113 129.395 34.1618C128.474 33.9481 127.54 33.7153 126.674 33.3472C125.37 32.7932 124.099 32.4622 122.719 33.0433C122.473 33.1465 122.163 33.0928 121.853 33.1138Z" fill="white"/>
<path d="M120.446 27.8576C121.166 26.6249 122.26 26.2544 123.34 25.9542C124.696 25.5769 126.081 25.5831 127.367 26.2593C128.634 26.9257 128.683 27.8156 127.551 28.737C126.214 29.8251 125.765 29.8776 124.418 28.8006C123.667 28.1997 122.911 27.873 121.948 27.9613C121.501 28.0021 121.042 27.9039 120.446 27.8576H120.446Z" fill="white"/>
<path d="M99.6638 15.4351C99.4581 15.0929 99.1086 14.7656 99.0715 14.4056C98.9116 12.8666 98.6398 11.3196 99.6255 9.88007C100.228 9.00128 100.644 7.99466 101.228 6.88551C101.816 7.88535 102.341 8.7135 102.786 9.58241C102.891 9.78744 102.801 10.1685 102.676 10.4007C102.364 10.9763 101.997 11.524 101.623 12.0632C100.912 13.0871 99.9361 13.969 100.02 15.4048L99.6638 15.4351Z" fill="white"/>
<path d="M111.236 10.6515C110.742 11.0511 110.32 11.4654 109.831 11.7711C108.992 12.2967 108.276 12.8797 107.996 13.8968C107.931 14.1345 107.6 14.2994 107.39 14.4977C107.171 14.2556 106.833 14.0469 106.752 13.7652C106.43 12.6289 105.877 11.4889 106.607 10.2915C107.056 9.5547 107.785 9.11253 108.398 9.53618C109.149 10.0543 109.927 10.1494 110.757 10.247C110.899 10.2637 111.019 10.4613 111.236 10.6515Z" fill="white"/>
<path d="M15.3545 17.2036C14.3324 17.8169 13.0423 18.1232 11.4836 18.1232C11.0748 18.1232 10.4807 18.0577 9.70192 17.9256C8.92255 17.7934 8.3581 17.7273 8.00917 17.7273C7.20017 17.7273 6.55728 17.9657 6.08052 18.4425C5.60377 18.9192 5.36477 19.5621 5.36477 20.3717C5.36477 20.4483 5.38577 20.5657 5.429 20.7231C5.47161 20.8806 5.49322 20.998 5.49322 21.0745C5.49322 21.211 5.43332 21.2789 5.31413 21.2789C5.01585 21.2789 4.86701 20.8701 4.86701 20.0525C4.86701 18.9458 5.25855 18.0596 6.04224 17.3957C6.78331 16.7652 7.71522 16.4502 8.8398 16.4502C9.2653 16.4502 9.95141 16.5311 10.8969 16.6929C11.8418 16.8547 12.5618 16.9356 13.0559 16.9356C14.4442 16.9356 15.5898 16.612 16.492 15.9648C16.526 15.9389 16.5772 15.9055 16.6452 15.8623C16.7304 15.8882 16.773 15.9346 16.773 16.0031C16.773 16.0457 16.5896 16.331 16.2234 16.859C15.7973 17.4636 15.5719 17.7872 15.5465 17.8299C14.7462 19.1329 13.8007 21.1042 12.7107 23.7443C11.3737 26.9889 10.1984 29.3777 9.18501 30.9105C7.27736 33.7889 5.2462 35.2285 3.09152 35.2285C2.27387 35.2285 1.56738 34.9901 0.970809 34.5127C0.323603 33.9933 0 33.3332 0 32.5328C0 32.09 0.132159 31.7127 0.395858 31.402C0.660175 31.0914 1.0091 30.9358 1.44324 30.9358C2.17567 30.9358 2.54189 31.2594 2.54189 31.9066C2.54189 32.6223 2.06081 32.9879 1.09864 33.0052H0.728107C0.966487 34.1891 1.74585 34.7807 3.0662 34.7807C4.58232 34.7807 6.10646 33.5586 7.63925 31.1143C8.27781 30.1095 9.23195 28.2099 10.5004 25.4166C12.2889 21.4735 13.9069 18.7358 15.3545 17.2024V17.2036Z" fill="white"/>
<path d="M21.5118 24.8679C19.7912 27.9767 18.931 29.9393 18.931 30.7569C18.931 31.2936 19.1564 31.5616 19.6084 31.5616C19.9827 31.5616 20.2556 31.3955 20.4261 31.0633C20.5959 30.731 20.6898 30.5649 20.7071 30.5649C20.7923 30.5649 20.8349 30.6118 20.8349 30.7057C20.8349 31.0379 20.7114 31.3121 20.4644 31.5295C20.2174 31.7469 19.9234 31.8556 19.5831 31.8556C19.4979 31.8556 19.2805 31.8253 18.9316 31.766C18.4036 31.6635 17.9398 31.6382 17.5396 31.6895L17.3858 30.9867C16.5941 31.5659 15.8444 31.8556 15.1373 31.8556C14.4388 31.8556 13.8855 31.6469 13.4767 31.2294C13.0678 30.8119 12.8634 30.2543 12.8634 29.5558C12.8634 28.2867 13.5298 27.1627 14.8625 26.1833C16.1952 25.2044 17.7768 24.7147 19.6084 24.7147C20.3662 24.7147 21.0004 24.766 21.5118 24.8679ZM20.234 25.0723H19.8122C18.143 25.0723 16.7547 25.4916 15.648 26.3309C14.5407 27.1695 13.9874 28.1638 13.9874 29.3137C13.9874 30.5402 14.6136 31.1534 15.8654 31.1534C16.4447 31.1534 17.0363 30.9231 17.6409 30.4636C18.1603 28.6498 19.0248 26.8521 20.234 25.0723Z" fill="white"/>
<path d="M30.8747 24.9197L28.2685 30.1313C28.0728 30.5228 27.9746 30.8254 27.9746 31.0379C27.9746 31.3361 28.1321 31.485 28.447 31.485C28.5322 31.485 28.6453 31.4294 28.7854 31.3189C28.9262 31.2083 29.0133 31.1527 29.0473 31.1527C29.1325 31.1527 29.1751 31.1953 29.1751 31.2806C29.1751 31.451 29.0516 31.5875 28.8046 31.6894C28.6088 31.7826 28.4131 31.8302 28.2167 31.8302C28.1148 31.8302 27.9375 31.8024 27.6868 31.7474C27.4355 31.6919 27.2415 31.6641 27.1057 31.6641C26.7561 31.6641 26.4455 31.7197 26.1732 31.8302C26.3689 31.6313 26.5777 31.3578 26.7994 31.0095C26.7734 30.9434 26.7228 30.91 26.6462 30.91C26.6715 30.91 26.3992 31.0632 25.8286 31.3701C25.2579 31.677 24.7342 31.8302 24.2575 31.8302C22.9544 31.8302 22.3029 31.2898 22.3029 30.2079C22.3029 29.8756 22.4394 29.4155 22.7117 28.8282L24.155 25.7114C23.3546 25.8991 22.9112 25.9924 22.8266 25.9924C22.7327 25.9924 22.6858 25.9498 22.6858 25.8645C22.6858 25.7966 22.7451 25.7453 22.8649 25.7114L25.9014 24.9203L23.8369 29.1352C23.5639 29.6885 23.4268 30.106 23.4268 30.387C23.4268 31.0342 23.8097 31.3578 24.5761 31.3578C25.7594 31.3578 26.7086 30.6167 27.4243 29.1339L29.0979 25.6725C28.5786 25.8009 28.3105 25.8645 28.2939 25.8645C28.166 25.8645 28.1024 25.8219 28.1024 25.7367C28.1024 25.6515 28.1833 25.5879 28.3451 25.5446L30.8747 24.9197Z" fill="white"/>
<path d="M39.6238 16.4118C39.7517 16.4118 39.9048 16.4544 40.0839 16.5396C40.263 16.6248 40.3519 16.723 40.3519 16.8336C40.3519 16.9102 40.3093 16.9571 40.2241 16.9744C39.798 16.8299 39.5639 16.757 39.5213 16.757C39.0785 16.757 38.414 17.7451 37.5284 19.7207L34.7055 26.0186C35.651 25.133 36.7064 24.6902 37.8736 24.6902C39.1082 24.6902 39.7257 25.099 39.7257 25.9167C39.7257 26.5892 39.2872 27.2031 38.4103 27.7564C37.7544 28.1739 37.0134 28.4845 36.1877 28.6889C36.4001 29.1404 36.5663 29.6807 36.6861 30.3113C36.8053 30.9418 36.9881 31.2568 37.2357 31.2568C37.3462 31.2568 37.4741 31.2036 37.6192 31.0968C37.7637 30.9906 37.8576 30.9375 37.9002 30.9375C37.9681 30.9375 38.0194 30.9801 38.0534 31.0653C38.0534 31.2271 37.9595 31.3741 37.7724 31.5063C37.5846 31.6378 37.4061 31.7039 37.2357 31.7039C37.1332 31.7039 36.9819 31.6804 36.7824 31.6335C36.5823 31.5865 36.431 31.5631 36.3291 31.5631C36.15 31.5631 35.7925 31.6526 35.2558 31.8317C35.4262 31.5421 35.5115 31.2358 35.5115 30.9122C35.5115 30.4774 35.4089 29.9883 35.2045 29.443C35.0001 28.9829 34.8 28.5234 34.6043 28.0633C35.0977 28.1659 35.5411 28.2165 35.9326 28.2165C36.5026 28.2165 37.0566 28.0423 37.5933 27.6928C38.1979 27.2926 38.5005 26.8245 38.5005 26.2878C38.5005 25.6579 38.0787 25.3424 37.2357 25.3424C35.5238 25.3424 34.0676 26.8566 32.8664 29.8839C32.6281 30.491 32.5089 30.8757 32.5089 31.0388C32.5089 31.2697 32.6281 31.3852 32.8664 31.3852C32.8578 31.3852 33.0072 31.3426 33.3136 31.2574C33.3988 31.2827 33.4414 31.334 33.4414 31.4105C33.4414 31.6915 33.1647 31.8323 32.6108 31.8323C32.4829 31.8323 32.2933 31.7959 32.0426 31.7236C31.7919 31.6514 31.5973 31.6149 31.4615 31.6149C31.3336 31.6149 31.1403 31.6514 30.8804 31.7236C30.621 31.7959 30.4227 31.8323 30.2863 31.8323C29.7755 31.8323 29.5199 31.7249 29.5199 31.51C29.5199 31.342 29.5841 31.258 29.7119 31.258C29.7718 31.258 29.8632 31.279 29.9867 31.3216C30.1103 31.3642 30.2017 31.3858 30.2609 31.3858C30.6611 31.3858 31.304 30.4774 32.1902 28.6605L35.9079 21.0083C36.3847 20.0276 36.6953 19.4002 36.8405 19.1272C37.232 18.4108 37.6198 17.8223 38.0027 17.3616C38.5307 16.7304 39.0711 16.4149 39.625 16.4149L39.6238 16.4118Z" fill="white"/>
<path d="M48.7954 24.9197L46.1893 30.1313C45.9936 30.5228 45.8954 30.8254 45.8954 31.0379C45.8954 31.3361 46.0529 31.485 46.3678 31.485C46.453 31.485 46.566 31.4294 46.7062 31.3189C46.847 31.2083 46.9341 31.1527 46.9681 31.1527C47.0533 31.1527 47.0959 31.1953 47.0959 31.2806C47.0959 31.451 46.9724 31.5875 46.7254 31.6894C46.5296 31.7826 46.3338 31.8302 46.1375 31.8302C46.0356 31.8302 45.8583 31.8024 45.6076 31.7474C45.3562 31.6919 45.1623 31.6641 45.0265 31.6641C44.6769 31.6641 44.3663 31.7197 44.0939 31.8302C44.2897 31.6313 44.4984 31.3578 44.7202 31.0095C44.6942 30.9434 44.6436 30.91 44.567 30.91C44.5923 30.91 44.32 31.0632 43.7493 31.3701C43.1787 31.677 42.655 31.8302 42.1783 31.8302C40.8752 31.8302 40.2237 31.2898 40.2237 30.2079C40.2237 29.8756 40.3602 29.4155 40.6325 28.8282L42.0757 25.7114C41.2754 25.8991 40.832 25.9924 40.7474 25.9924C40.6535 25.9924 40.6066 25.9498 40.6066 25.8645C40.6066 25.7966 40.6658 25.7453 40.7857 25.7114L43.8222 24.9203L41.7577 29.1352C41.4847 29.6885 41.3476 30.106 41.3476 30.387C41.3476 31.0342 41.7305 31.3578 42.4969 31.3578C43.6802 31.3578 44.6294 30.6167 45.3451 29.1339L47.0187 25.6725C46.4994 25.8009 46.2313 25.8645 46.2147 25.8645C46.0868 25.8645 46.0232 25.8219 46.0232 25.7367C46.0232 25.6515 46.1041 25.5879 46.2659 25.5446L48.7954 24.9197Z" fill="white"/>
<path d="M51.445 25.8647C51.3512 25.882 51.1258 25.9585 50.7682 26.095C50.4613 26.2056 50.2612 26.2612 50.1679 26.2612C50.0487 26.2612 49.9888 26.2056 49.9888 26.095C49.9888 26.0184 50.3612 25.8505 51.1066 25.5905C51.852 25.3305 52.5011 25.0903 53.055 24.8685L52.4671 26.4396C53.617 25.2897 54.8132 24.7154 56.0564 24.7154C57.1377 24.7154 57.6787 25.1792 57.6787 26.1074V26.4396C58.6353 25.2897 59.6308 24.7154 60.664 24.7154C61.7225 24.7154 62.2518 25.2626 62.2518 26.3569C62.2518 27.0016 61.7985 27.9712 60.8913 29.2644C59.9841 30.5582 59.5308 31.1967 59.5308 31.1794C59.5308 31.2813 59.5777 31.3326 59.6716 31.3326C60.0885 31.1195 60.3744 31.0133 60.5275 31.0133C60.6041 31.0133 60.7128 31.0219 60.853 31.0386C60.9938 31.0559 61.1025 31.0646 61.1791 31.0646C61.4514 31.0646 61.7065 30.9966 61.9455 30.8601C61.8862 31.1757 61.6774 31.4221 61.3199 31.6012C61.0129 31.755 60.6813 31.8316 60.3231 31.8316C60.2039 31.8316 60.0248 31.8038 59.7865 31.7488C59.5481 31.6932 59.369 31.6654 59.2498 31.6654C59.1899 31.6654 58.8836 31.721 58.3302 31.8316C60.1267 29.609 61.0253 27.9224 61.0253 26.7731C61.0253 25.9388 60.6418 25.5213 59.876 25.5213C59.348 25.5213 58.8237 25.7585 58.3049 26.2334C57.8621 26.6323 57.5126 27.1072 57.2575 27.6581L56.0057 30.342C55.852 30.673 55.7754 30.9058 55.7754 31.0417C55.7754 31.3048 55.9668 31.4363 56.3503 31.4363C56.5208 31.4363 56.887 31.3301 57.449 31.1171C57.5169 31.151 57.5515 31.198 57.5515 31.2579C57.5515 31.445 57.3724 31.6068 57.0148 31.7433C56.7252 31.8538 56.4658 31.9094 56.2355 31.9094C56.0823 31.9094 55.8563 31.8754 55.5586 31.8069C55.2603 31.7389 55.0349 31.7044 54.8818 31.7044C54.7366 31.7044 54.5174 31.726 54.2241 31.7686C53.9307 31.8112 53.7109 31.8328 53.5664 31.8328C52.9618 31.8328 52.6592 31.7315 52.6592 31.5296C52.6592 31.4166 52.7104 31.3604 52.8129 31.3604C52.8809 31.3604 52.9809 31.3733 53.1131 31.3987C53.2452 31.424 53.3447 31.4369 53.4132 31.4369C53.9579 31.4369 54.4303 30.9732 54.8311 30.0443L56.1855 26.9145C56.33 26.5823 56.4028 26.3266 56.4028 26.1481C56.4028 25.5948 56.0706 25.3181 55.4067 25.3181C53.7881 25.3181 52.3664 26.6169 51.14 29.2143C50.7058 30.1425 50.4884 30.7428 50.4884 31.0158C50.4884 31.2968 50.6292 31.4376 50.9102 31.4376C51.0381 31.4376 51.2888 31.3313 51.6637 31.1183C51.7489 31.1436 51.7915 31.1992 51.7915 31.2844C51.7915 31.4209 51.6167 31.553 51.2678 31.6809C50.9695 31.7834 50.7268 31.834 50.5397 31.834C50.3952 31.834 50.1778 31.8063 49.8882 31.7513C49.5985 31.6957 49.3818 31.6679 49.2366 31.6679C49.0748 31.6679 48.8556 31.721 48.5789 31.8279C48.3023 31.9341 48.1256 31.9872 48.0491 31.9872C47.9465 31.9872 47.8959 31.9273 47.8959 31.8081C47.8959 31.8167 48.1343 31.7019 48.611 31.4629C49.0878 31.2245 49.6288 30.3309 50.2334 28.7802C50.7188 27.5197 51.1233 26.5489 51.4469 25.8678L51.445 25.8647Z" fill="white"/>
<path d="M71.9049 24.8679C70.1844 27.9767 69.3241 29.9393 69.3241 30.7569C69.3241 31.2936 69.5496 31.5616 70.0016 31.5616C70.3759 31.5616 70.6488 31.3955 70.8193 31.0633C70.9891 30.731 71.083 30.5649 71.1002 30.5649C71.1855 30.5649 71.2281 30.6118 71.2281 30.7057C71.2281 31.0379 71.1046 31.3121 70.8575 31.5295C70.6105 31.7469 70.3166 31.8556 69.9763 31.8556C69.8911 31.8556 69.6737 31.8253 69.3248 31.766C68.7967 31.6635 68.333 31.6382 67.9328 31.6895L67.779 30.9867C66.9873 31.5659 66.2376 31.8556 65.5304 31.8556C64.832 31.8556 64.2787 31.6469 63.8698 31.2294C63.461 30.8119 63.2566 30.2543 63.2566 29.5558C63.2566 28.2867 63.9229 27.1627 65.2556 26.1833C66.5883 25.2044 68.1699 24.7147 70.0016 24.7147C70.7594 24.7147 71.3936 24.766 71.9049 24.8679ZM70.6272 25.0723H70.2054C68.5361 25.0723 67.1478 25.4916 66.0412 26.3309C64.9339 27.1695 64.3805 28.1638 64.3805 29.3137C64.3805 30.5402 65.0068 31.1534 66.2586 31.1534C66.8378 31.1534 67.4295 30.9231 68.0341 30.4636C68.5534 28.6498 69.418 26.8521 70.6272 25.0723Z" fill="white"/>
<path d="M47.9178 14.261C48.1562 14.2931 48.3804 14.3561 48.5903 14.4519C48.8003 14.547 48.9831 14.6662 49.1375 14.8088C49.2925 14.9515 49.4129 15.1164 49.5006 15.3029C49.5883 15.4894 49.6315 15.6938 49.6315 15.9161C49.6315 16.186 49.584 16.4336 49.4889 16.6603C49.3938 16.8869 49.2647 17.0808 49.1023 17.2432C48.9399 17.4057 48.7515 17.5329 48.5366 17.6243C48.3223 17.7157 48.0919 17.7614 47.8462 17.7614C47.5917 17.7614 47.3558 17.7138 47.1378 17.6187C46.9192 17.5236 46.7308 17.3945 46.5721 17.2321C46.4134 17.0697 46.2887 16.8807 46.1973 16.6664C46.1059 16.4521 46.0602 16.2218 46.0602 15.976H46.5363C46.5363 16.357 46.653 16.6708 46.8877 16.9166C47.1218 17.1623 47.441 17.2852 47.8462 17.2852C48.2272 17.2852 48.5403 17.1648 48.7861 16.9227C49.0319 16.6806 49.1554 16.3453 49.1554 15.9167C49.1554 15.5758 49.0319 15.3078 48.7861 15.1133C48.5403 14.9187 48.2266 14.7903 47.8462 14.7267C47.6319 14.6952 47.4312 14.6371 47.2447 14.5538C47.0581 14.4704 46.8957 14.3673 46.7568 14.2444C46.6178 14.1215 46.5067 13.9807 46.4233 13.8219C46.3399 13.6632 46.2985 13.4885 46.2985 13.2983C46.2985 13.0599 46.3381 12.8419 46.4177 12.6436C46.4968 12.4454 46.6079 12.2768 46.7512 12.1379C46.8939 11.9989 47.0588 11.8902 47.2453 11.8105C47.4318 11.7309 47.6319 11.6914 47.8468 11.6914C48.1803 11.6914 48.4816 11.7729 48.7515 11.9353C49.0214 12.0983 49.2314 12.3102 49.382 12.572L49.001 12.8221C48.8979 12.6239 48.7472 12.4652 48.5489 12.346C48.3507 12.2268 48.1167 12.1675 47.8468 12.1675C47.5448 12.1675 47.291 12.2706 47.0847 12.4769C46.8784 12.6832 46.7753 12.9574 46.7753 13.2983C46.7753 13.4255 46.8068 13.5422 46.8704 13.649C46.934 13.7565 47.0192 13.8516 47.1261 13.935C47.2335 14.0183 47.3564 14.0881 47.4954 14.1431C47.6343 14.1987 47.7751 14.2382 47.9178 14.2623V14.261Z" fill="white"/>
<path d="M51.4942 16.5637C51.585 16.7422 51.7103 16.891 51.8691 17.0102C52.0278 17.1288 52.2063 17.2127 52.4051 17.2597C52.5638 17.2992 52.7299 17.3035 52.9053 17.272V17.7482C52.683 17.7723 52.4607 17.7562 52.2384 17.7006C51.9845 17.629 51.756 17.5141 51.5541 17.3554C51.3515 17.1967 51.1891 16.9985 51.0662 16.7607C50.9433 16.5223 50.8816 16.2407 50.8816 15.9152V12.2253H50.4054V11.7492H50.8816V9.36908H51.3577V11.7492H52.4292V12.2253H51.3577V15.9152C51.3577 16.1697 51.4028 16.3852 51.4942 16.5637Z" fill="white"/>
<path d="M57.3672 11.7494V15.9871C57.3672 16.1773 57.3691 16.3484 57.3734 16.4991C57.3771 16.6497 57.395 16.7788 57.4265 16.8857C57.458 16.9925 57.5056 17.0765 57.5692 17.1358C57.6328 17.1951 57.7236 17.2253 57.8428 17.2253V17.7015C57.5883 17.7015 57.3981 17.644 57.2715 17.5292C57.1443 17.4137 57.0529 17.2574 56.9979 17.0586C56.8312 17.2729 56.6249 17.4439 56.3791 17.5705C56.1334 17.6977 55.8672 17.7607 55.5813 17.7607C55.3274 17.7607 55.0915 17.715 54.8729 17.6236C54.6543 17.5329 54.4659 17.4056 54.3072 17.2426C54.1485 17.0802 54.0238 16.8857 53.9324 16.6596C53.841 16.4336 53.7953 16.1853 53.7953 15.9155V11.7494H54.2714V15.9155C54.2714 16.3441 54.3881 16.6794 54.6222 16.9215C54.8562 17.1636 55.1755 17.284 55.5806 17.284C55.9376 17.284 56.2414 17.1691 56.4915 16.9388C56.7417 16.7084 56.8744 16.3873 56.8905 15.9741V11.7488H57.3666L57.3672 11.7494Z" fill="white"/>
<path d="M61.2379 12.476C61.1268 12.3969 61.0002 12.3352 60.8569 12.2913C60.7142 12.2481 60.5629 12.2259 60.4048 12.2259C60.0238 12.2259 59.7101 12.345 59.4649 12.5828C59.2191 12.8212 59.0956 13.1584 59.0956 13.595V15.9158C59.0956 16.3444 59.2123 16.6797 59.447 16.9218C59.6811 17.1639 60.0003 17.2843 60.4048 17.2843C60.7618 17.2843 61.0656 17.1695 61.3158 16.9391C61.5659 16.7087 61.6986 16.3876 61.7147 15.9745V9.36839H62.1908V15.8553C62.1908 16.0615 62.1927 16.248 62.197 16.4148C62.2007 16.5815 62.2168 16.7242 62.2446 16.8434C62.2724 16.9626 62.3181 17.0558 62.3817 17.1231C62.4453 17.1904 62.5404 17.2244 62.667 17.2244V17.7006C62.4132 17.7006 62.2223 17.6431 62.0957 17.5283C61.9685 17.4128 61.8771 17.2565 61.8222 17.0577C61.6554 17.272 61.4491 17.443 61.2034 17.5696C60.9576 17.6968 60.6914 17.7598 60.4055 17.7598C60.1516 17.7598 59.9157 17.7141 59.6977 17.6227C59.4791 17.532 59.2908 17.4047 59.1321 17.2417C58.9733 17.0793 58.848 16.8848 58.7572 16.6587C58.6658 16.4327 58.6201 16.1844 58.6201 15.9146V13.5938C58.6201 13.3159 58.6676 13.0639 58.7627 12.8379C58.8579 12.6118 58.9869 12.4173 59.1493 12.2549C59.3118 12.0925 59.5001 11.9671 59.715 11.88C59.9293 11.7923 60.1591 11.7491 60.4055 11.7491C60.7068 11.7491 60.9847 11.8164 61.2386 11.9517V12.4754L61.2379 12.476Z" fill="white"/>
<path d="M63.8579 10.3809C63.8579 10.2938 63.8857 10.2222 63.9413 10.1666C63.9969 10.1117 64.0679 10.0833 64.1556 10.0833C64.2433 10.0833 64.3143 10.111 64.3699 10.1666C64.4255 10.2222 64.4533 10.2938 64.4533 10.3809C64.4533 10.468 64.4255 10.5396 64.3699 10.5952C64.3143 10.6508 64.2427 10.6786 64.1556 10.6786C64.0685 10.6786 63.9969 10.6508 63.9413 10.5952C63.8857 10.5403 63.8579 10.4686 63.8579 10.3809ZM63.9178 17.7015V11.7501H64.394V17.7015H63.9178Z" fill="white"/>
<path d="M66.3527 11.7494V19.07C66.3527 19.356 66.3052 19.6061 66.21 19.8198C66.1149 20.034 65.9859 20.2224 65.8234 20.3854C65.6604 20.5479 65.4721 20.6769 65.2578 20.772C65.0435 20.8671 64.8131 20.9147 64.5673 20.9147V20.4386C64.9484 20.4386 65.2621 20.3157 65.5079 20.0692C65.7537 19.8235 65.8766 19.49 65.8766 19.0694V11.7488L66.3527 11.7494ZM65.8173 10.3809C65.8173 10.2938 65.8451 10.2222 65.9006 10.1666C65.9562 10.1117 66.0279 10.0833 66.1149 10.0833C66.202 10.0833 66.2737 10.111 66.3292 10.1666C66.3848 10.2222 66.4126 10.2938 66.4126 10.3809C66.4126 10.468 66.3848 10.5396 66.3292 10.5952C66.2737 10.6508 66.202 10.6786 66.1149 10.6786C66.0279 10.6786 65.9562 10.6508 65.9006 10.5952C65.8451 10.5403 65.8173 10.4686 65.8173 10.3809Z" fill="white"/>
<path d="M70.2428 14.9754C70.1316 14.8964 70.005 14.8346 69.8617 14.7908C69.7185 14.7469 69.5678 14.7253 69.4097 14.7253C69.0286 14.7253 68.7149 14.8346 68.4691 15.0526C68.2233 15.2712 68.1004 15.5584 68.1004 15.9154C68.1004 16.3439 68.2233 16.6793 68.4691 16.9214C68.7149 17.1634 69.0286 17.2839 69.4097 17.2839C69.8142 17.2839 70.1335 17.1634 70.3675 16.9214C70.6016 16.6793 70.7189 16.3439 70.7189 15.9154V13.5346C70.7189 13.098 70.6016 12.7615 70.3675 12.5231C70.1335 12.2853 69.8142 12.1661 69.4097 12.1661C68.9576 12.1661 68.592 12.3409 68.3147 12.6898L67.9337 12.4638C68.0764 12.2254 68.2851 12.0377 68.5587 11.8981C68.8323 11.7592 69.1157 11.69 69.4097 11.69C69.6635 11.69 69.8994 11.7338 70.118 11.8209C70.336 11.9086 70.5244 12.0334 70.6837 12.1958C70.8424 12.3582 70.9672 12.5527 71.0586 12.7788C71.1494 13.0048 71.1957 13.2567 71.1957 13.5346V15.9154C71.1957 16.1136 71.1975 16.2921 71.2018 16.4508C71.2056 16.6095 71.2216 16.7466 71.2494 16.8615C71.2772 16.9769 71.3247 17.0659 71.3921 17.1295C71.4594 17.1931 71.5526 17.2246 71.6718 17.2246V17.7007C71.4174 17.7007 71.2272 17.6433 71.1006 17.5284C70.9733 17.4129 70.882 17.2604 70.827 17.0702C70.6683 17.2765 70.4657 17.4432 70.2199 17.5704C69.9741 17.6976 69.7043 17.7606 69.4103 17.7606C69.1645 17.7606 68.9342 17.7149 68.7199 17.6235C68.5056 17.5328 68.3172 17.4055 68.1542 17.2425C67.9918 17.0801 67.8627 16.8855 67.7676 16.6595C67.6725 16.4335 67.6249 16.1852 67.6249 15.9154C67.6249 15.685 67.6725 15.4689 67.7676 15.2669C67.8627 15.0644 67.9918 14.8877 68.1542 14.737C68.3166 14.5864 68.5056 14.4672 68.7199 14.3801C68.9342 14.293 69.1645 14.2492 69.4103 14.2492C69.7117 14.2492 69.9896 14.3165 70.2434 14.4517L70.2428 14.9754Z" fill="white"/>
</svg>
