<svg data-name="Layer 2" version="1.1" viewBox="0 0 64 64" xmlns="http://www.w3.org/2000/svg">
 <circle cx="32" cy="32" r="32" fill="#D6D2C4" stroke-width=".93594"/>
 <g fill="#333F48">
  <path d="m33.402 44.073c-0.03 0.215-0.16517 0.49876-0.07617 0.63476 1.176 1.789 1.5065 3.8527 1.8105 5.8887 0.182 1.224 0.01477 2.499 0.0098 3.752-0.01769 0.62-0.08227 1.1115-0.16016 1.6934-0.49481 2.7098-1.6108 5.5405-2.8242 7.9571 0.08526 0.0062 0.16274-0.01612 0.24805-0.01059 0.56794-0.0027 1.0635-0.01188 1.6334-0.04169 1.1236-2.3161 1.9471-4.8366 2.2552-7.4986 0.14699-0.89511 0.16143-1.1917 0.25976-2.1309 0.39-2.905-0.47792-5.5996-1.4199-8.2676-0.225-0.638-0.6838-1.2028-1.0918-1.7598-0.109-0.149-0.42353-0.1478-0.64453-0.2168z"/>
  <path d="m53.146 35.964c-0.289-0.021-0.579-0.033-0.867-0.064-1.285-0.136-2.323 0.182-3.039 1.382-0.412 0.691-1.061 1.236-1.508 1.91-0.843 1.271-2.121 1.533-3.458 1.463-1.757-0.092-3.505-0.353-5.306-0.547-0.149-0.579 0.196-0.928 0.634-1.17 1.314-0.724 2.248-1.783 2.942-3.098 0.23-0.437 0.573-0.817 0.88-1.21 1.711-2.195 4.297-2.804 6.663-1.408 1.146 0.676 2.124 1.638 3.177 2.471z"/>
  <path d="m12.376 35.041c0.034-0.173 0.012-0.431 0.106-0.483 1.133-0.639 2.284-1.243 3.427-1.864 1.499-0.815 2.918-0.586 4.203 0.422 0.876 0.687 1.766 1.408 2.456 2.268 0.946 1.178 1.818 2.381 3.209 3.094 0.225 0.115 0.323 0.477 0.479 0.724-0.297 0.167-0.639 0.526-0.884 0.469-1.326-0.307-2.598-0.049-3.902 0.138-2.097 0.301-3.883-0.48-5.155-2.098-0.928-1.18-1.825-2.214-3.412-2.376-0.166-0.017-0.317-0.173-0.528-0.295z"/>
  <path d="m32.976 22.265c0.324 1.028 0.543 2.106 1 3.07 0.482 1.014 1.098 2 1.823 2.856 1.345 1.586 1.341 3.362 0.83 5.163-0.514 1.811-1.428 3.418-3.481 4.576 0.196-0.781 0.246-1.266 0.437-1.687 0.435-0.957 0.113-1.848-0.169-2.734-0.138-0.434-0.68-0.465-0.828-0.055-0.276 0.762-0.502 1.548-0.67 2.341-0.177 0.837-0.228 1.708-1.022 2.436-0.603-1.604-1.185-3.093-1.723-4.598-0.779-2.179-0.339-4.194 0.894-6.087 1.054-1.618 2.3-3.14 2.59-5.146 8e-3 -0.059 0.208-0.09 0.319-0.134zm-0.4 2.967c-0.754 1.236-1.56 2.426-2.232 3.688-1.152 2.163-0.826 4.495 0.77 6.164 0.271-0.771 0.458-1.581 0.834-2.291 0.369-0.698-0.27-1.638 0.57-2.248 0.496 0.796 1.023 1.488 1.381 2.259 0.372 0.801 0.579 1.678 0.833 2.444 1.616-2.012 1.821-4.451 0.395-6.563-0.764-1.132-1.621-2.2-2.551-3.451z"/>
  <path d="m10.098 23.589c2.304-0.897 4.509-1.73 6.929-1.019 0.643 0.189 1.44 0.396 1.808 0.871 1.079 1.395 2.412 2.34 4.038 2.941 0.137 0.051 0.332 0.324 0.299 0.383-0.105 0.191-0.297 0.46-0.468 0.47-1.495 0.088-2.993 0.139-4.49 0.175-1.437 0.034-2.575-0.584-3.343-1.769-0.728-1.122-1.669-1.619-3.011-1.476-0.583 0.062-1.241 0.082-1.761-0.575z"/>
  <path d="m35.266 45.364c1.492-0.042 2.948 0.247 3.918-1.146-1.182-1.117-2.849-0.628-4.379-1.172 0.984-0.874 1.75-1.675 2.964-1.805 1.974-0.211 4.506 1.425 5.165 3.351 0.298 0.871 0.633 1.728 0.961 2.616-1.078-0.341-2.147-0.404-3.299-0.137-1.978 0.459-3.8 0.104-5.329-1.707z"/>
  <path d="m46.206 30.595c1.108-0.673 2.785-0.672 3.035-2.558l-2.578 0.4c1.734-3.475 3.188-3.746 5.755-3.173 1.034 0.231 2.126 0.202 3.256 0.297-0.121 0.457-0.114 0.73-0.22 0.785-1.307 0.678-2.154 1.774-3.047 2.915-0.929 1.187-2.231 2.009-3.934 1.774-0.72-0.099-1.463-0.032-2.196-0.041l-0.071-0.4z"/>
  <path d="m22.922 47.672c0.354-1.643 0.407-3.293 1.432-4.636 1.7-2.23 3.975-2.718 6.406-1.309 0.559 0.324 1.42 0.332 1.42 1.285 0 0.977-0.895 1.226-1.482 1.508-0.755 0.363-1.702 0.53-2.543 0.467-1.905-0.142-3.478 0.221-4.491 2.008-0.157 0.277-0.491 0.454-0.742 0.678z"/>
  <path d="m25.864 26.49c-0.138-2.036 0.621-3.722 1.873-5.3 0.77-0.97 1.323-2.118 1.925-3.213 0.92-1.672 0.605-3.249-0.412-4.777-0.358-0.539-0.607-1.151-0.713-1.848 1.54 1.687 3.371 3.145 4.082 5.409 0.622 1.98 0.061 3.871-0.745 5.668-0.42 0.935-1.079 1.763-1.892 2.496 0.645-1.424 1.44-2.803 1.893-4.286 0.462-1.512 0.042-3.056-0.531-4.563-0.771 2.609-2.133 4.859-3.528 7.108-1.179 1.899-1.129 2.953-0.042 5.046 0.236-0.493 0.409-0.925 0.641-1.322 0.24-0.409 0.537-0.785 1.03-1.048l-1.427 3.602c-1.469-0.584-1.421-2.078-2.141-3.051l-0.014 0.08z"/>
  <path d="m17.24 30.068c-1.248 0.769-2.042-0.388-3.268-0.485l2.044 1.813c-1.243 0.666-2.4 0.724-3.545 0.796-0.876 0.055-1.356-0.644-1.826-1.184-0.834-0.958-1.541-2.028-2.32-3.076 1.097-0.276 2.261-0.694 3.458-0.838 1.449-0.174 2.875-0.071 3.833 1.375 0.392 0.591 1.025 1.022 1.624 1.599z"/>
  <path d="m39.496 12.453c-0.327 0.547-0.587 1.152-0.993 1.631-1.039 1.226-1.174 2.594-0.8 4.073 0.123 0.485 0.251 0.972 0.427 1.44 0.83 2.203 0.514 4.311-0.459 6.389-0.396 0.846-0.724 1.724-1.136 2.715-0.143-0.35-0.381-0.659-0.378-0.965 0.026-2.323-0.624-4.425-1.808-6.419-1.571-2.645-0.694-5.647 2.174-7.328-0.281 0.501-0.411 0.952-0.706 1.224-2.008 1.854-1.506 3.915-0.552 6.015 0.581 1.279 1.207 2.539 1.831 3.848 0.643-1.477 0.71-3.051 0.323-4.658-0.146-0.606-0.355-1.202-0.579-1.785-0.715-1.856-0.188-3.446 1.025-4.889 0.431-0.513 0.905-0.991 1.359-1.484l0.271 0.194z"/>
  <path d="m25.878 26.41c-0.285 0.036-0.65 0.204-0.841 0.087-1.174-0.716-2.387-1.404-3.425-2.291-0.569-0.487-0.873-1.322-1.195-2.045-0.278-0.624-0.465-1.301-0.598-1.973-0.282-1.424-1.202-2.128-2.535-2.456-0.707-0.174-1.88-0.187-1.77-1.03 0.124-0.955 1.326-0.637 2.081-0.7 0.872-0.072 1.767-0.068 2.635 0.037 2.565 0.31 4.756 2.216 4.771 4.953 5e-3 0.944 0.039 1.889 0.111 2.83 0.071 0.934 0.108 1.891 0.753 2.669l0.014-0.08zm-1.562-1.515c-1e-3 -1.481 0.078-2.743-0.025-3.99-0.113-1.373-0.797-2.506-1.961-3.274-1.3-0.859-2.477-1.014-3.783-0.593 1.555 1.354 1.613 1.407 2.278 3.686 0.528 1.808 1.39 3.315 3.49 4.172z"/>
  <path d="m17.36 29.394c0.337-0.261 0.597-0.631 0.901-0.67 1.238-0.16 2.522-0.071 3.727-0.346 2.2-0.502 5.544 1.599 5.891 3.887 0.121 0.795 0.382 1.571 0.607 2.348 0.355 1.226 0.733 2.446 1.105 3.68-0.022 0.016-0.088 0.097-0.121 0.085-1.022-0.38-2.014-0.882-3.066-1.125-1.088-0.251-1.932-0.784-2.774-1.467-0.62-0.502-1.009-1.036-1.221-1.806-0.395-1.43-1.205-2.622-2.498-3.391-0.733-0.436-1.549-0.733-2.55-1.195zm2.985 0.262c1.182 0.977 2.002 1.935 2.372 3.266 0.445 1.603 1.537 2.692 3.088 3.268 0.757 0.281 1.563 0.432 2.4 0.656-0.27-1.27-0.578-2.527-0.797-3.798-0.279-1.625-1.39-2.541-2.621-3.452-1.119-0.828-2.224-0.537-3.374-0.264-0.302 0.072-0.595 0.179-1.068 0.325z"/>
  <path d="m34.856 38.649c2.228-1.375 2.867-3.623 3.186-5.946 0.313-2.282 0.268-3.248 3.843-4.007 1.093-0.232 2.182-0.482 3.327-0.736-0.869 0.96-1.079 2.195-1.229 3.461-0.365 3.091-2.088 5.195-4.897 6.375-1.301 0.547-2.708 0.84-4.067 1.248l-0.163-0.394zm8.516-9.573c-0.563 0.126-1.092 0.252-1.625 0.36-1.82 0.37-2.822 1.339-2.869 3.333-0.043 1.836-0.501 3.613-2.07 5.11 4.696-1.561 6.243-3.67 6.564-8.803z"/>
  <path d="m47.496 14.607c-1.2 0.716-1.543 1.808-1.502 3.07 2e-3 0.063-0.012 0.126-0.011 0.188 0.053 2.561-1.455 4.164-3.409 5.46-0.672 0.446-1.484 0.677-1.881 1.49-0.075 0.153-0.467 0.288-0.631 0.223-0.171-0.067-0.393-0.45-0.335-0.584 0.689-1.601 0.114-3.225 0.126-4.832 8e-3 -1.081 0.365-1.924 1.209-2.609 1.233-1.001 2.543-1.798 4.143-2.086 0.697-0.126 1.361-0.432 2.04-0.657l0.252 0.337zm-6.488 8.467c3.025-0.779 4.723-3.972 4.102-7.36-1.222 0-2 0.876-2.94 1.455-1.174 0.724-1.497 1.768-1.39 3.043 0.078 0.932 0.149 1.864 0.228 2.862z"/>
  <path d="m49.916 19.834c-0.165 1.166-0.247 2.34-0.51 3.471-0.5 2.147-2.06 3.193-4.112 3.574-0.977 0.182-1.981 0.223-3.083 0.34 0.453-1.191 0.818-2.372 1.349-3.472 0.375-0.775 0.929-1.445 1.853-1.757 1.441-0.487 2.988-0.824 3.972-2.174 0.037-0.051 0.22 3e-3 0.531 0.017zm-6.19 6.579c3.303-0.395 4.515-1.486 4.987-4.372-2.488 5e-3 -4.346 0.348-4.987 4.372z"/>
  <path d="m26.178 20.896c-0.131-0.088-0.303-0.142-0.32-0.226-0.352-1.729-0.883-3.349-2.062-4.75-0.292-0.347-0.127-1.216 0.042-1.781 0.208-0.696 0.641-1.326 1.077-2.182 0.222 0.372 0.338 0.606 0.49 0.815 0.508 0.698 0.94 1.481 1.562 2.058 1.357 1.258 1.593 2.044 0.737 3.602-0.464 0.846-1.014 1.644-1.526 2.464zm0.331-2.19c1.081-1.927 1.057-2.078-0.515-3.543-0.182-0.169-0.286-0.429-0.48-0.575-0.224-0.169-0.508-0.258-0.766-0.382-0.081 0.276-0.272 0.576-0.219 0.823 0.101 0.476 0.291 0.95 0.533 1.374 0.45 0.788 0.963 1.54 1.448 2.303z"/>
 </g>
</svg>
